<?xml version="1.0" encoding="UTF-8"?>
<svg xmlns="http://www.w3.org/2000/svg" xmlns:xlink="http://www.w3.org/1999/xlink" width="900px" height="296px" viewBox="0 0 899 296" version="1.1">
<g id="surface1">
<path style=" stroke:none;fill-rule:nonzero;fill:rgb(0.392157%,0.392157%,0.392157%);fill-opacity:1;" d="M 179.390625 87.929688 C 181.261719 87.988281 181.261719 87.988281 183.164062 88.050781 C 189.972656 88.359375 195.449219 88.863281 201.402344 92.289062 C 204.417969 96.8125 203.828125 99.3125 203.652344 104.667969 C 204.800781 104.710938 204.800781 104.710938 205.976562 104.753906 C 209.445312 104.886719 212.914062 105.023438 216.382812 105.160156 C 218.191406 105.226562 218.191406 105.226562 220.035156 105.296875 C 221.191406 105.34375 222.347656 105.390625 223.542969 105.4375 C 224.609375 105.480469 225.675781 105.519531 226.773438 105.5625 C 229.53125 105.792969 229.53125 105.792969 232.90625 106.921875 C 232.273438 110.601562 231.21875 112.351562 228.40625 114.796875 C 229.976562 119.554688 232.214844 122.441406 235.648438 126.054688 C 240.140625 130.789062 243.253906 135.144531 245.777344 141.175781 C 247.359375 145.210938 247.359375 145.210938 249.925781 148.351562 C 252.421875 152.597656 252.488281 155.5625 252.773438 160.378906 C 253.175781 163.308594 253.933594 165.019531 255.410156 167.554688 C 259.34375 174.6875 259.785156 183.300781 257.730469 191.121094 C 254.898438 198.214844 248.929688 202.890625 242.050781 205.890625 C 234.585938 208.285156 226.980469 207.324219 219.40625 205.960938 C 219.28125 204.535156 219.28125 204.535156 219.152344 203.078125 C 218.171875 194.617188 216.925781 188.164062 210.402344 182.328125 C 204.601562 178.996094 197.738281 176.707031 191.074219 178.476562 C 188.847656 179.308594 186.695312 180.230469 184.527344 181.203125 C 183.410156 181.574219 182.296875 181.945312 181.148438 182.328125 C 179.929688 184.296875 179.929688 184.296875 178.898438 186.828125 C 178.03125 188.359375 178.03125 188.359375 177.140625 189.925781 C 175.207031 194.300781 174.808594 197.835938 174.398438 202.585938 C 168.933594 204.347656 164.367188 205.117188 158.566406 205.097656 C 157.097656 205.09375 155.625 205.089844 154.105469 205.089844 C 153.351562 205.082031 152.59375 205.074219 151.816406 205.066406 C 149.503906 205.046875 147.191406 205.046875 144.878906 205.046875 C 132.917969 204.992188 132.917969 204.992188 127.144531 203.710938 C 124.402344 203.46875 121.660156 203.257812 118.914062 203.078125 C 116.796875 202.9375 116.796875 202.9375 114.636719 202.792969 C 113.566406 202.722656 112.496094 202.65625 111.390625 202.585938 C 111.160156 201.648438 110.929688 200.714844 110.691406 199.75 C 110.386719 198.527344 110.085938 197.304688 109.773438 196.042969 C 109.472656 194.828125 109.171875 193.613281 108.863281 192.363281 C 108.285156 190.121094 107.621094 187.898438 106.890625 185.703125 C 106.148438 185.703125 105.40625 185.703125 104.640625 185.703125 C 103.804688 184.820312 102.96875 183.9375 102.109375 183.03125 C 97.785156 178.902344 94.3125 178.054688 88.464844 177.402344 C 83.972656 177.867188 81.175781 179.148438 77.296875 181.34375 C 75.386719 182.328125 75.386719 182.328125 73.136719 182.328125 C 72.832031 182.929688 72.53125 183.535156 72.222656 184.15625 C 70.886719 186.828125 70.886719 186.828125 69.125 189.714844 C 66.898438 195.046875 66.679688 200.234375 66.382812 205.960938 C 43.566406 206.667969 43.566406 206.667969 34.246094 200.757812 C 31.078125 195.519531 32.339844 189.527344 33.402344 183.734375 C 34.121094 180.082031 34.121094 180.082031 32.136719 177.402344 C 29.164062 172.402344 29.859375 167.453125 30.789062 161.863281 C 32.042969 157.347656 33.742188 154.890625 37.832031 152.578125 C 44.683594 148.96875 52.074219 147.050781 59.488281 144.96875 C 80.898438 138.917969 100.652344 132.3125 115.46875 114.585938 C 122.773438 105.914062 130.585938 102.378906 141.769531 101.292969 C 142.789062 101.273438 143.808594 101.253906 144.859375 101.234375 C 147.78125 101.152344 150.226562 101.042969 153.019531 100.167969 C 154.898438 98.027344 156.019531 96.03125 157.152344 93.421875 C 162.175781 85.824219 171.441406 87.503906 179.390625 87.929688 Z M 160.636719 94.820312 C 158.902344 97.519531 157.441406 100.078125 156.140625 103.003906 C 155.488281 104.4375 155.488281 104.4375 154.820312 105.902344 C 154.367188 106.910156 153.910156 107.921875 153.441406 108.960938 C 149.042969 118.5 144.078125 127.34375 138.320312 136.121094 C 136.042969 139.417969 136.042969 139.417969 135.019531 142.933594 C 133.347656 143.492188 133.347656 143.492188 131.644531 144.0625 C 128.230469 147.5 128.230469 147.5 127.144531 151.9375 C 126.46875 152.21875 125.796875 152.496094 125.101562 152.785156 C 122.230469 154.425781 120.878906 155.804688 119.265625 158.691406 C 119.863281 163.703125 122.621094 165.644531 126.339844 168.722656 C 130.144531 171.648438 133.976562 174.503906 137.902344 177.261719 C 138.605469 177.777344 139.308594 178.292969 140.03125 178.824219 C 143.773438 181.378906 145.71875 182.316406 150.363281 182.410156 C 154.832031 180.980469 156.828125 179.316406 160.054688 175.925781 C 160.574219 175.382812 161.089844 174.835938 161.625 174.273438 C 171.15625 164.066406 179.558594 153.292969 185.652344 140.683594 C 186.042969 139.898438 186.433594 139.113281 186.835938 138.304688 C 197.070312 119.042969 197.070312 119.042969 200.277344 97.917969 C 198.804688 95.1875 197.917969 93.757812 194.945312 92.753906 C 189.296875 91.722656 183.5 91.933594 177.773438 91.867188 C 176.4375 91.824219 175.101562 91.78125 173.722656 91.738281 C 172.4375 91.726562 171.152344 91.714844 169.828125 91.699219 C 168.65625 91.675781 167.480469 91.65625 166.273438 91.632812 C 162.941406 92.035156 162.941406 92.035156 160.636719 94.820312 Z M 160.636719 94.820312 "/>
<path style=" stroke:none;fill-rule:nonzero;fill:rgb(1.176471%,1.176471%,1.176471%);fill-opacity:1;" d="M 470.457031 112.898438 C 473.125 112.964844 473.125 112.964844 475.941406 113.671875 C 477.902344 115.753906 477.902344 115.753906 479.695312 118.539062 C 480.367188 119.5625 481.039062 120.585938 481.730469 121.640625 C 482.417969 122.726562 483.105469 123.808594 483.816406 124.929688 C 485.210938 127.050781 486.605469 129.171875 488 131.292969 C 490.132812 134.585938 492.261719 137.878906 494.386719 141.171875 C 498.367188 147.3125 502.429688 153.355469 506.703125 159.292969 C 509.027344 162.746094 511.039062 166.316406 513.070312 169.945312 C 513.070312 169.273438 513.066406 168.601562 513.0625 167.910156 C 513.039062 160.9375 513.023438 153.964844 513.007812 146.988281 C 513.003906 144.382812 512.996094 141.78125 512.988281 139.175781 C 512.972656 135.4375 512.964844 131.699219 512.960938 127.960938 C 512.957031 126.792969 512.949219 125.621094 512.945312 124.414062 C 512.945312 123.335938 512.945312 122.253906 512.945312 121.136719 C 512.941406 120.183594 512.9375 119.230469 512.9375 118.246094 C 513.070312 115.925781 513.070312 115.925781 514.195312 113.671875 C 517.910156 113.671875 521.621094 113.671875 525.449219 113.671875 C 526.457031 117.707031 526.714844 120.683594 526.71875 124.796875 C 526.722656 126.128906 526.726562 127.460938 526.730469 128.835938 C 526.726562 130.273438 526.726562 131.707031 526.722656 133.1875 C 526.722656 134.667969 526.726562 136.148438 526.726562 137.671875 C 526.726562 140.800781 526.726562 143.929688 526.71875 147.058594 C 526.714844 151.058594 526.71875 155.058594 526.722656 159.0625 C 526.730469 162.886719 526.726562 166.714844 526.722656 170.539062 C 526.726562 171.972656 526.726562 173.40625 526.730469 174.886719 C 526.722656 176.890625 526.722656 176.890625 526.71875 178.9375 C 526.71875 180.109375 526.71875 181.285156 526.714844 182.492188 C 526.578125 185.558594 526.140625 188.347656 525.449219 191.332031 C 523.722656 191.578125 521.984375 191.75 520.246094 191.894531 C 519.277344 191.996094 518.3125 192.101562 517.316406 192.210938 C 512.175781 190.761719 510.269531 186.65625 507.445312 182.328125 C 506.8125 181.382812 506.179688 180.441406 505.527344 179.46875 C 503.445312 176.332031 501.398438 173.179688 499.359375 170.015625 C 498.628906 168.890625 497.898438 167.765625 497.144531 166.605469 C 494.949219 163.21875 492.757812 159.832031 490.566406 156.441406 C 489.285156 154.460938 488 152.476562 486.71875 150.496094 C 483.871094 146.101562 481.03125 141.707031 478.191406 137.308594 C 477.265625 140.539062 476.933594 143.386719 476.957031 146.746094 C 476.960938 148.191406 476.960938 148.191406 476.96875 149.667969 C 476.976562 150.703125 476.988281 151.734375 476.996094 152.796875 C 477 153.863281 477.003906 154.925781 477.007812 156.023438 C 477.023438 159.421875 477.042969 162.820312 477.066406 166.21875 C 477.097656 170.703125 477.117188 175.183594 477.136719 179.667969 C 477.144531 180.707031 477.15625 181.746094 477.164062 182.816406 C 477.175781 185.277344 477.125 187.742188 477.066406 190.207031 C 475.941406 191.332031 475.941406 191.332031 473.371094 191.441406 C 472.339844 191.425781 471.308594 191.414062 470.246094 191.402344 C 468.695312 191.386719 468.695312 191.386719 467.113281 191.371094 C 466.3125 191.355469 465.511719 191.34375 464.691406 191.332031 C 464.664062 181.371094 464.644531 171.414062 464.632812 161.453125 C 464.625 156.828125 464.617188 152.207031 464.605469 147.582031 C 464.59375 143.121094 464.585938 138.664062 464.582031 134.207031 C 464.582031 132.5 464.578125 130.796875 464.570312 129.089844 C 464.5625 126.710938 464.5625 124.332031 464.5625 121.953125 C 464.558594 120.59375 464.558594 119.238281 464.554688 117.839844 C 464.757812 113.234375 466.179688 113.339844 470.457031 112.898438 Z M 470.457031 112.898438 "/>
<path style=" stroke:none;fill-rule:nonzero;fill:rgb(1.176471%,1.176471%,1.176471%);fill-opacity:1;" d="M 690.566406 119.441406 C 699.722656 127.160156 704.734375 136.84375 705.789062 148.757812 C 706.164062 162.078125 702.988281 173.082031 693.726562 182.925781 C 684.929688 190.785156 675.734375 192.820312 664.277344 192.695312 C 653.585938 192.027344 645.648438 188.0625 638.316406 180.320312 C 630.453125 170.726562 628.160156 160.421875 628.53125 148.171875 C 629.777344 136.269531 635.199219 126.703125 644.222656 118.949219 C 657.601562 109.539062 677.503906 109.992188 690.566406 119.441406 Z M 646.402344 133.71875 C 640.75 142.234375 640.382812 151.632812 642.042969 161.503906 C 643.628906 167.933594 647.054688 173.164062 652.414062 177.09375 C 659.269531 181.132812 665.0625 181.84375 672.84375 181.203125 C 680.0625 179 686.09375 175.132812 690.089844 168.644531 C 694.429688 159.226562 694.734375 148.851562 691.339844 139.066406 C 688.136719 132.140625 683.300781 128.070312 676.359375 125.070312 C 664.996094 121.441406 654.050781 124.285156 646.402344 133.71875 Z M 646.402344 133.71875 "/>
<path style=" stroke:none;fill-rule:nonzero;fill:rgb(0.784314%,0.784314%,0.784314%);fill-opacity:1;" d="M 750.410156 113.390625 C 751.757812 113.367188 753.109375 113.34375 754.5 113.320312 C 763.996094 113.28125 772.410156 114.070312 780.71875 118.949219 C 786.832031 125.601562 788.378906 131.871094 788.039062 140.867188 C 787.183594 147.203125 784.503906 150.605469 779.875 155.035156 C 776.550781 157.425781 773.28125 159.160156 769.605469 160.941406 C 770.425781 162.144531 770.425781 162.144531 771.257812 163.367188 C 773.277344 166.339844 775.289062 169.316406 777.296875 172.296875 C 778.167969 173.585938 779.042969 174.875 779.917969 176.160156 C 781.175781 178.007812 782.425781 179.859375 783.671875 181.714844 C 784.425781 182.828125 785.179688 183.945312 785.957031 185.089844 C 787.609375 187.953125 787.609375 187.953125 787.609375 191.332031 C 783.304688 192.03125 779.519531 192.226562 775.234375 191.332031 C 771.617188 188.222656 769.632812 184.222656 767.355469 180.074219 C 766.007812 177.667969 764.644531 175.277344 763.246094 172.898438 C 762.296875 171.285156 761.378906 169.652344 760.496094 168 C 758.015625 163.625 758.015625 163.625 753.746094 161.300781 C 750.984375 160.898438 750.984375 160.898438 747.105469 160.941406 C 747.109375 161.824219 747.117188 162.703125 747.121094 163.609375 C 747.144531 167.574219 747.160156 171.539062 747.175781 175.503906 C 747.183594 176.890625 747.191406 178.277344 747.203125 179.703125 C 747.207031 181.019531 747.210938 182.335938 747.214844 183.695312 C 747.21875 184.914062 747.226562 186.132812 747.230469 187.390625 C 747.105469 190.207031 747.105469 190.207031 745.980469 191.332031 C 744.292969 191.441406 742.605469 191.476562 740.914062 191.472656 C 740 191.472656 739.082031 191.476562 738.136719 191.480469 C 735.851562 191.332031 735.851562 191.332031 734.726562 190.207031 C 734.617188 187.863281 734.582031 185.519531 734.582031 183.171875 C 734.578125 182.441406 734.578125 181.707031 734.574219 180.949219 C 734.570312 178.511719 734.574219 176.078125 734.578125 173.640625 C 734.578125 171.953125 734.574219 170.265625 734.574219 168.582031 C 734.574219 165.042969 734.574219 161.503906 734.582031 157.964844 C 734.585938 153.417969 734.582031 148.875 734.578125 144.328125 C 734.574219 140.84375 734.574219 137.359375 734.578125 133.878906 C 734.578125 132.199219 734.578125 130.523438 734.574219 128.847656 C 734.570312 126.507812 734.574219 124.167969 734.582031 121.832031 C 734.582031 120.496094 734.582031 119.164062 734.585938 117.789062 C 734.925781 110.667969 744.925781 113.414062 750.410156 113.390625 Z M 747.105469 124.929688 C 747.105469 133.839844 747.105469 142.753906 747.105469 151.9375 C 760.050781 152.832031 760.050781 152.832031 771.855469 148.5625 C 775.785156 144.382812 775.800781 139.855469 775.636719 134.359375 C 775.058594 130.539062 773.589844 128.585938 770.730469 126.054688 C 767.621094 125.015625 765.800781 124.796875 762.597656 124.816406 C 761.375 124.820312 761.375 124.820312 760.128906 124.828125 C 758.589844 124.839844 758.589844 124.839844 757.019531 124.855469 C 753.746094 124.878906 750.476562 124.902344 747.105469 124.929688 Z M 747.105469 124.929688 "/>
<path style=" stroke:none;fill-rule:nonzero;fill:rgb(0.784314%,0.784314%,0.784314%);fill-opacity:1;" d="M 311.667969 113.671875 C 316.683594 113.574219 321.699219 113.515625 326.71875 113.460938 C 328.125 113.433594 329.535156 113.40625 330.984375 113.375 C 340.359375 113.300781 349.109375 113.589844 357.167969 118.835938 C 362.890625 125.390625 364.476562 132.042969 364.550781 140.683594 C 363.722656 147.5625 360.988281 151.785156 355.671875 156.117188 C 352.394531 158.121094 348.980469 159.488281 345.421875 160.941406 C 345.84375 161.550781 346.261719 162.15625 346.695312 162.78125 C 348.617188 165.566406 350.535156 168.355469 352.457031 171.144531 C 353.445312 172.574219 353.445312 172.574219 354.453125 174.035156 C 358.078125 179.308594 361.476562 184.59375 364.550781 190.207031 C 363.425781 191.332031 363.425781 191.332031 360.609375 191.441406 C 359.472656 191.425781 358.335938 191.414062 357.167969 191.402344 C 356.027344 191.390625 354.890625 191.378906 353.714844 191.371094 C 352.835938 191.355469 351.957031 191.34375 351.046875 191.332031 C 350.304688 189.472656 349.5625 187.617188 348.796875 185.703125 C 348.054688 185.703125 347.3125 185.703125 346.546875 185.703125 C 346.140625 184.925781 345.730469 184.152344 345.308594 183.351562 C 341.9375 177.046875 338.40625 171.039062 334.285156 165.195312 C 333.046875 163.195312 333.046875 163.195312 333.046875 160.941406 C 329.703125 160.941406 326.363281 160.941406 322.917969 160.941406 C 322.960938 161.664062 323 162.382812 323.042969 163.125 C 323.21875 166.40625 323.386719 169.691406 323.554688 172.972656 C 323.617188 174.105469 323.679688 175.238281 323.742188 176.40625 C 323.796875 177.507812 323.851562 178.605469 323.910156 179.738281 C 323.960938 180.746094 324.015625 181.753906 324.070312 182.792969 C 324.042969 185.78125 323.597656 188.425781 322.917969 191.332031 C 319.207031 191.332031 315.492188 191.332031 311.667969 191.332031 C 310.253906 183.683594 310.375 176.085938 310.402344 168.328125 C 310.40625 166.871094 310.40625 165.414062 310.410156 163.914062 C 310.464844 147.15625 311.042969 130.414062 311.667969 113.671875 Z M 322.917969 124.929688 C 322.886719 129.007812 322.867188 133.085938 322.847656 137.167969 C 322.839844 138.328125 322.832031 139.492188 322.820312 140.6875 C 322.816406 141.796875 322.8125 142.910156 322.808594 144.050781 C 322.804688 145.078125 322.796875 146.101562 322.792969 147.160156 C 322.753906 149.730469 322.753906 149.730469 324.046875 151.9375 C 337.648438 152.796875 337.648438 152.796875 349.5 147.0625 C 352.339844 143.617188 352.167969 139.382812 352.175781 135.058594 C 351.351562 131.355469 350.277344 129.808594 347.703125 127.042969 C 342.867188 124.039062 338.824219 124.429688 333.257812 124.644531 C 331.765625 124.675781 331.765625 124.675781 330.246094 124.707031 C 327.800781 124.761719 325.359375 124.839844 322.917969 124.929688 Z M 322.917969 124.929688 "/>
<path style=" stroke:none;fill-rule:nonzero;fill:rgb(1.176471%,1.176471%,1.176471%);fill-opacity:1;" d="M 841.722656 114.539062 C 842.617188 114.554688 843.507812 114.570312 844.429688 114.585938 C 845.769531 114.597656 845.769531 114.597656 847.136719 114.609375 C 849.492188 114.796875 849.492188 114.796875 851.742188 115.925781 C 852.636719 117.738281 852.636719 117.738281 853.507812 120.121094 C 853.839844 121.011719 854.171875 121.902344 854.511719 122.824219 C 854.867188 123.800781 855.21875 124.78125 855.585938 125.789062 C 855.960938 126.804688 856.335938 127.824219 856.722656 128.871094 C 857.929688 132.148438 859.125 135.429688 860.324219 138.714844 C 861.492188 141.902344 862.664062 145.089844 863.835938 148.277344 C 864.617188 150.402344 865.398438 152.53125 866.175781 154.660156 C 868.1875 160.152344 870.242188 165.625 872.382812 171.074219 C 872.804688 172.15625 873.226562 173.242188 873.664062 174.359375 C 874.476562 176.429688 875.296875 178.492188 876.125 180.554688 C 876.484375 181.480469 876.847656 182.402344 877.21875 183.355469 C 877.542969 184.164062 877.867188 184.972656 878.199219 185.808594 C 878.746094 187.953125 878.746094 187.953125 877.621094 191.332031 C 873.910156 191.332031 870.195312 191.332031 866.371094 191.332031 C 865.429688 188.941406 864.492188 186.550781 863.558594 184.15625 C 863.035156 182.824219 862.511719 181.492188 861.976562 180.121094 C 860.746094 176.699219 860.746094 176.699219 860.746094 174.449219 C 849.976562 174.449219 839.210938 174.449219 828.113281 174.449219 C 827 178.535156 825.886719 182.621094 824.738281 186.828125 C 823.996094 188.316406 823.253906 189.800781 822.488281 191.332031 C 818.40625 191.332031 814.320312 191.332031 810.113281 191.332031 C 810.832031 185.527344 812.597656 180.546875 814.722656 175.148438 C 815.246094 173.792969 815.246094 173.792969 815.78125 172.414062 C 816.910156 169.503906 818.046875 166.59375 819.183594 163.6875 C 819.957031 161.695312 820.734375 159.703125 821.503906 157.710938 C 822.652344 154.757812 823.800781 151.800781 824.949219 148.847656 C 827.050781 143.449219 829.125 138.039062 831.15625 132.613281 C 831.777344 130.957031 831.777344 130.957031 832.410156 129.269531 C 833.136719 127.324219 833.855469 125.375 834.574219 123.425781 C 837.738281 114.976562 837.738281 114.976562 841.722656 114.539062 Z M 843.867188 130.554688 C 842.261719 135 840.65625 139.445312 839.058594 143.894531 C 838.515625 145.410156 837.96875 146.921875 837.421875 148.433594 C 836.636719 150.605469 835.855469 152.78125 835.078125 154.957031 C 834.605469 156.261719 834.132812 157.570312 833.648438 158.921875 C 832.5 161.871094 832.5 161.871094 832.617188 164.320312 C 840.414062 164.320312 848.210938 164.320312 856.242188 164.320312 C 854.429688 155.9375 854.429688 155.9375 851.804688 148.03125 C 851.207031 146.480469 851.207031 146.480469 850.597656 144.898438 C 850.1875 143.855469 849.773438 142.8125 849.351562 141.738281 C 848.933594 140.65625 848.515625 139.578125 848.082031 138.460938 C 847.058594 135.824219 846.027344 133.1875 844.992188 130.554688 C 844.621094 130.554688 844.25 130.554688 843.867188 130.554688 Z M 843.867188 130.554688 "/>
<path style=" stroke:none;fill-rule:nonzero;fill:rgb(0.784314%,0.784314%,0.784314%);fill-opacity:1;" d="M 392.679688 113.671875 C 406.789062 113.671875 420.898438 113.671875 435.433594 113.671875 C 436.5625 118.175781 436.5625 118.175781 435.433594 123.800781 C 420.398438 124.359375 420.398438 124.359375 405.054688 124.929688 C 405.054688 132.355469 405.054688 139.785156 405.054688 147.4375 C 413.96875 147.4375 422.878906 147.4375 432.058594 147.4375 C 433.183594 151.9375 433.183594 151.9375 430.933594 157.566406 C 422.023438 157.566406 413.113281 157.566406 403.929688 157.566406 C 404.300781 165.738281 404.671875 173.910156 405.054688 182.328125 C 415.082031 182.328125 425.105469 182.328125 435.433594 182.328125 C 436.5625 185.703125 436.5625 185.703125 435.433594 191.332031 C 421.324219 191.332031 407.214844 191.332031 392.679688 191.332031 C 391.933594 186.117188 391.410156 181.722656 391.40625 176.5625 C 391.402344 175.25 391.402344 173.933594 391.398438 172.578125 C 391.402344 171.175781 391.410156 169.773438 391.414062 168.328125 C 391.414062 166.871094 391.417969 165.414062 391.421875 163.914062 C 391.476562 147.152344 392.085938 130.421875 392.679688 113.671875 Z M 392.679688 113.671875 "/>
<path style=" stroke:none;fill-rule:nonzero;fill:rgb(1.568628%,1.568628%,1.568628%);fill-opacity:1;" d="M 551.328125 113.671875 C 569.148438 113.671875 586.972656 113.671875 605.335938 113.671875 C 606.460938 118.175781 606.460938 118.175781 604.210938 123.800781 C 594.742188 124.359375 594.742188 124.359375 585.082031 124.929688 C 585.089844 127.824219 585.089844 127.824219 585.097656 130.78125 C 585.117188 137.15625 585.128906 143.53125 585.140625 149.90625 C 585.144531 153.769531 585.152344 157.636719 585.167969 161.5 C 585.179688 165.941406 585.1875 170.386719 585.191406 174.828125 C 585.195312 176.21875 585.203125 177.609375 585.207031 179.042969 C 585.207031 180.96875 585.207031 180.96875 585.210938 182.933594 C 585.210938 184.070312 585.214844 185.203125 585.214844 186.375 C 585.082031 189.078125 585.082031 189.078125 583.957031 191.332031 C 580.242188 191.332031 576.53125 191.332031 572.703125 191.332031 C 572.023438 168.816406 571.367188 146.328125 571.578125 123.800781 C 564.894531 123.800781 558.210938 123.800781 551.328125 123.800781 C 550.203125 117.050781 550.203125 117.050781 551.328125 113.671875 Z M 551.328125 113.671875 "/>
<path style=" stroke:none;fill-rule:nonzero;fill:rgb(0.784314%,0.784314%,0.784314%);fill-opacity:1;" d="M 98.238281 182.328125 C 103.347656 186.128906 106.292969 190.269531 107.433594 196.605469 C 107.808594 204.097656 106.257812 209.335938 101.265625 214.964844 C 97.394531 218.296875 93.230469 219.28125 88.21875 219.675781 C 82.199219 219.214844 77.507812 216.167969 73.5 211.773438 C 70.429688 207.398438 68.921875 203.476562 69.273438 198.105469 C 70.449219 192.621094 73.4375 188.0625 76.511719 183.453125 C 83.386719 180.1875 91.042969 180.152344 98.238281 182.328125 Z M 98.238281 182.328125 "/>
<path style=" stroke:none;fill-rule:nonzero;fill:rgb(0.784314%,0.784314%,0.784314%);fill-opacity:1;" d="M 196.128906 180.992188 C 197.191406 180.972656 198.253906 180.957031 199.351562 180.941406 C 203.96875 181.320312 206.988281 182.164062 210.140625 185.652344 C 214.394531 192.234375 216.835938 196.972656 215.328125 204.90625 C 214.039062 209.472656 211.816406 211.914062 208.152344 214.964844 C 207.480469 215.617188 206.808594 216.265625 206.113281 216.933594 C 202.441406 219.035156 198.820312 219.601562 194.652344 219.46875 C 187.679688 217.222656 182.667969 214.363281 179.109375 207.859375 C 177.101562 201.617188 176.953125 197.089844 179.671875 191.121094 C 183.476562 184.132812 188.316406 181.042969 196.128906 180.992188 Z M 196.128906 180.992188 "/>
<path style=" stroke:none;fill-rule:nonzero;fill:rgb(2.745098%,4.705882%,3.137255%);fill-opacity:1;" d="M 158.425781 72.390625 C 160.363281 74.136719 162.28125 75.910156 164.167969 77.710938 C 166.570312 80.070312 166.570312 80.070312 169.898438 82.160156 C 169.527344 83.644531 169.15625 85.132812 168.773438 86.660156 C 164.4375 84.894531 161.929688 82.066406 158.648438 78.785156 C 145.421875 67.496094 130.832031 64.167969 113.8125 65.0625 C 99.761719 66.308594 86.71875 72.972656 77.132812 83.292969 C 70.539062 91.746094 66.15625 102.039062 64.132812 112.546875 C 64.496094 115.675781 64.496094 115.675781 65.257812 118.175781 C 64.515625 118.175781 63.773438 118.175781 63.007812 118.175781 C 63.378906 124.117188 63.75 130.058594 64.132812 136.183594 C 63.019531 136.183594 61.90625 136.183594 60.757812 136.183594 C 56.894531 119.347656 58.5625 103.996094 67.507812 88.914062 C 68.144531 87.828125 68.144531 87.828125 68.792969 86.722656 C 69.96875 84.832031 69.96875 84.832031 72.011719 82.160156 C 72.753906 82.160156 73.496094 82.160156 74.261719 82.160156 C 74.554688 81.492188 74.847656 80.828125 75.152344 80.140625 C 80.4375 70.476562 92.863281 64.769531 102.65625 60.90625 C 121.449219 55.722656 143.511719 60.050781 158.425781 72.390625 Z M 158.425781 72.390625 "/>
<path style=" stroke:none;fill-rule:nonzero;fill:rgb(3.529412%,3.529412%,3.529412%);fill-opacity:1;" d="M 87.691406 71.046875 C 88.839844 71.53125 88.839844 71.53125 90.011719 72.03125 C 87.914062 74.21875 85.789062 76.304688 83.445312 78.230469 C 72.777344 87.019531 66.34375 98.269531 64.34375 112.054688 C 63.824219 115.765625 63.824219 115.765625 65.257812 118.175781 C 64.515625 118.175781 63.773438 118.175781 63.007812 118.175781 C 63.378906 124.117188 63.75 130.058594 64.132812 136.183594 C 63.019531 136.183594 61.90625 136.183594 60.757812 136.183594 C 56.894531 119.347656 58.5625 103.996094 67.507812 88.914062 C 68.144531 87.828125 68.144531 87.828125 68.792969 86.722656 C 69.96875 84.832031 69.96875 84.832031 72.011719 82.160156 C 72.753906 82.160156 73.496094 82.160156 74.261719 82.160156 C 74.554688 81.492188 74.847656 80.828125 75.152344 80.140625 C 77.808594 75.285156 81.964844 70.800781 87.691406 71.046875 Z M 87.691406 71.046875 "/>
<path style=" stroke:none;fill-rule:nonzero;fill:rgb(4.313726%,4.313726%,4.705882%);fill-opacity:1;" d="M 182.273438 94.539062 C 186.429688 97.457031 187.707031 99.089844 188.605469 104.105469 C 187.707031 109.125 186.429688 110.753906 182.273438 113.671875 C 177.628906 114.417969 175.300781 114.164062 171.164062 111.914062 C 168.007812 108.292969 167.566406 106.070312 167.648438 101.292969 C 171.65625 94.933594 174.84375 93.785156 182.273438 94.539062 Z M 174.1875 99.253906 C 171.90625 101.160156 171.90625 101.160156 171.585938 104.105469 C 171.921875 107.027344 171.921875 107.027344 174.046875 109.03125 C 176.609375 110.535156 176.609375 110.535156 179.601562 110.15625 C 182.648438 109.332031 182.648438 109.332031 184.527344 105.792969 C 184.433594 102.886719 184.433594 102.886719 183.402344 100.167969 C 179.609375 97.636719 178.222656 97.0625 174.1875 99.253906 Z M 174.1875 99.253906 "/>
<path style=" stroke:none;fill-rule:nonzero;fill:rgb(8.627451%,8.627451%,8.627451%);fill-opacity:1;" d="M 151.894531 12.378906 C 152.640625 12.378906 153.382812 12.378906 154.144531 12.378906 C 153.558594 22.03125 150.734375 30.859375 147.886719 40.023438 C 147.402344 41.605469 146.921875 43.183594 146.441406 44.765625 C 145.265625 48.605469 144.085938 52.441406 142.894531 56.273438 C 141.410156 56.273438 139.925781 56.273438 138.394531 56.273438 C 140.085938 47.84375 142.511719 39.695312 145.078125 31.496094 C 145.785156 29.238281 146.484375 26.976562 147.183594 24.710938 C 147.628906 23.273438 148.078125 21.835938 148.523438 20.398438 C 148.929688 19.101562 149.332031 17.804688 149.75 16.46875 C 150.769531 13.503906 150.769531 13.503906 151.894531 12.378906 Z M 151.894531 12.378906 "/>
<path style=" stroke:none;fill-rule:nonzero;fill:rgb(6.666667%,6.666667%,6.666667%);fill-opacity:1;" d="M 200.277344 42.769531 C 201.390625 43.140625 202.503906 43.511719 203.652344 43.894531 C 201.777344 48.769531 198.167969 51.925781 194.511719 55.5 C 193.855469 56.148438 193.199219 56.800781 192.519531 57.46875 C 188.324219 61.589844 184.042969 65.574219 179.546875 69.367188 C 177.570312 71.027344 177.570312 71.027344 175.242188 73.648438 C 173.273438 75.40625 173.273438 75.40625 168.773438 75.40625 C 170.226562 72.207031 171.753906 69.894531 174.246094 67.421875 C 174.871094 66.796875 175.5 66.171875 176.144531 65.527344 C 176.800781 64.886719 177.453125 64.25 178.125 63.589844 C 178.765625 62.949219 179.40625 62.308594 180.066406 61.652344 C 183.640625 58.109375 187.304688 54.871094 191.277344 51.773438 C 193.175781 49.917969 195.050781 48.042969 196.902344 46.144531 C 198.027344 45.019531 199.152344 43.894531 200.277344 42.769531 Z M 200.277344 42.769531 "/>
<path style=" stroke:none;fill-rule:nonzero;fill:rgb(3.529412%,5.098039%,3.529412%);fill-opacity:1;" d="M 93.386719 11.253906 C 94.5 11.253906 95.617188 11.253906 96.761719 11.253906 C 99.761719 21.65625 102.636719 32.074219 105.0625 42.628906 C 105.261719 43.476562 105.464844 44.324219 105.671875 45.199219 C 106.59375 49.320312 106.992188 52.238281 105.765625 56.273438 C 101.457031 53.402344 101.183594 50.648438 100.089844 45.875 C 99.796875 44.664062 99.796875 44.664062 99.5 43.429688 C 99.089844 41.71875 98.6875 40.007812 98.289062 38.292969 C 97.683594 35.683594 97.054688 33.074219 96.421875 30.46875 C 96.027344 28.804688 95.632812 27.140625 95.238281 25.476562 C 95.050781 24.699219 94.867188 23.925781 94.671875 23.125 C 93.746094 19.09375 93.179688 15.394531 93.386719 11.253906 Z M 93.386719 11.253906 "/>
<path style=" stroke:none;fill-rule:nonzero;fill:rgb(5.882353%,5.882353%,5.882353%);fill-opacity:1;" d="M 13.5 86.660156 C 23.066406 88.945312 32.464844 91.582031 41.839844 94.539062 C 43.113281 94.925781 44.382812 95.3125 45.695312 95.710938 C 46.898438 96.089844 48.101562 96.46875 49.34375 96.859375 C 50.972656 97.367188 50.972656 97.367188 52.636719 97.886719 C 53.460938 98.265625 54.285156 98.648438 55.132812 99.042969 C 55.691406 100.714844 55.691406 100.714844 56.257812 102.417969 C 47.578125 101.707031 39.492188 99.28125 31.152344 96.859375 C 29.703125 96.449219 28.257812 96.042969 26.808594 95.632812 C 16.1875 92.578125 16.1875 92.578125 12.375 90.039062 C 12.746094 88.921875 13.121094 87.808594 13.5 86.660156 Z M 13.5 86.660156 "/>
<path style=" stroke:none;fill-rule:nonzero;fill:rgb(3.921569%,3.921569%,3.921569%);fill-opacity:1;" d="M 55.132812 135.058594 C 55.132812 136.171875 55.132812 137.285156 55.132812 138.433594 C 54.53125 138.597656 53.929688 138.761719 53.308594 138.933594 C 50.585938 139.679688 47.867188 140.425781 45.148438 141.175781 C 44.199219 141.4375 43.253906 141.695312 42.277344 141.960938 C 41.371094 142.210938 40.464844 142.460938 39.53125 142.71875 C 38.273438 143.066406 38.273438 143.066406 36.996094 143.417969 C 34.808594 144.019531 34.808594 144.019531 32.628906 145.1875 C 30.546875 145.453125 28.460938 145.714844 26.375 145.953125 C 21.300781 146.617188 16.28125 147.609375 11.25 148.5625 C 10.878906 147.449219 10.507812 146.335938 10.125 145.1875 C 33.207031 137.972656 33.207031 137.972656 42.652344 136.546875 C 45.023438 136.21875 45.023438 136.21875 47.378906 135.574219 C 50.003906 134.9375 52.441406 134.980469 55.132812 135.058594 Z M 55.132812 135.058594 "/>
<path style=" stroke:none;fill-rule:nonzero;fill:rgb(12.941177%,12.941177%,13.333334%);fill-opacity:1;" d="M 42.757812 38.265625 C 46.625 38.898438 48.160156 39.988281 50.5625 43.050781 C 53.414062 46.554688 56.394531 49.734375 59.632812 52.898438 C 64.0625 57.238281 68.46875 61.601562 72.644531 66.191406 C 73.480469 67.109375 73.480469 67.109375 74.335938 68.042969 C 74.683594 68.617188 75.027344 69.1875 75.386719 69.78125 C 75.015625 70.894531 74.644531 72.007812 74.261719 73.15625 C 68.695312 69.519531 64.546875 65.71875 60.285156 60.621094 C 58.421875 58.355469 58.421875 58.355469 55.765625 55.851562 C 54.007812 54.023438 54.007812 54.023438 54.007812 51.773438 C 53.339844 51.480469 52.671875 51.1875 51.984375 50.886719 C 49.328125 49.421875 47.808594 47.953125 45.851562 45.652344 C 45.265625 44.980469 44.679688 44.308594 44.074219 43.617188 C 42.757812 41.644531 42.757812 41.644531 42.757812 38.265625 Z M 42.757812 38.265625 "/>
<path style=" stroke:none;fill-rule:nonzero;fill:rgb(9.411765%,10.980392%,9.803922%);fill-opacity:1;" d="M 112.515625 59.648438 C 112.144531 61.507812 111.773438 63.363281 111.390625 65.277344 C 109.742188 65.726562 109.742188 65.726562 108.0625 66.183594 C 106.617188 66.585938 105.171875 66.984375 103.726562 67.386719 C 101.589844 67.976562 101.589844 67.976562 99.414062 68.574219 C 95.542969 69.617188 95.542969 69.617188 92.261719 72.03125 C 88.675781 71.609375 88.675781 71.609375 85.511719 70.90625 C 93.019531 64.335938 102.339844 59.648438 112.515625 59.648438 Z M 112.515625 59.648438 "/>
<path style=" stroke:none;fill-rule:nonzero;fill:rgb(10.196079%,10.196079%,10.588235%);fill-opacity:1;" d="M 165.398438 87.785156 C 169.945312 87.910156 174.492188 88.058594 179.039062 88.210938 C 180.96875 88.261719 180.96875 88.261719 182.933594 88.316406 C 184.183594 88.359375 185.429688 88.402344 186.714844 88.445312 C 187.859375 88.480469 189 88.515625 190.179688 88.554688 C 193.800781 88.941406 196.871094 89.898438 200.277344 91.164062 C 200.277344 94.539062 200.277344 94.539062 199.152344 97.917969 C 198.410156 96.800781 197.667969 95.6875 196.902344 94.539062 C 192.757812 92.890625 188.097656 93.035156 183.683594 92.78125 C 182.898438 92.734375 182.113281 92.683594 181.304688 92.632812 C 179.378906 92.515625 177.449219 92.402344 175.523438 92.289062 C 175.523438 91.917969 175.523438 91.546875 175.523438 91.164062 C 172.183594 90.792969 168.839844 90.421875 165.398438 90.039062 C 165.398438 89.296875 165.398438 88.550781 165.398438 87.785156 Z M 165.398438 87.785156 "/>
<path style=" stroke:none;fill-rule:nonzero;fill:rgb(7.450981%,7.450981%,7.450981%);fill-opacity:1;" d="M 578.085938 113.5625 C 578.871094 113.566406 579.65625 113.566406 580.46875 113.566406 C 582.941406 113.574219 585.417969 113.589844 587.894531 113.601562 C 589.585938 113.609375 591.28125 113.613281 592.976562 113.617188 C 597.09375 113.628906 601.214844 113.648438 605.335938 113.671875 C 606.039062 115.714844 606.039062 115.714844 606.460938 118.175781 C 605.714844 119.289062 604.972656 120.402344 604.210938 121.550781 C 603.652344 118.765625 603.652344 118.765625 603.082031 115.925781 C 588.972656 115.925781 574.863281 115.925781 560.328125 115.925781 C 560.328125 115.550781 560.328125 115.179688 560.328125 114.796875 C 566.304688 113.957031 572.035156 113.539062 578.085938 113.5625 Z M 578.085938 113.5625 "/>
<path style=" stroke:none;fill-rule:nonzero;fill:rgb(2.745098%,2.745098%,2.745098%);fill-opacity:1;" d="M 23.570312 115.796875 C 24.507812 115.800781 25.445312 115.808594 26.410156 115.8125 C 27.421875 115.816406 28.433594 115.820312 29.476562 115.824219 C 31.070312 115.839844 31.070312 115.839844 32.699219 115.855469 C 33.769531 115.859375 34.835938 115.863281 35.9375 115.867188 C 38.585938 115.882812 41.234375 115.902344 43.882812 115.925781 C 43.882812 117.410156 43.882812 118.894531 43.882812 120.425781 C 40.574219 120.515625 37.273438 120.582031 33.964844 120.636719 C 32.558594 120.679688 32.558594 120.679688 31.125 120.722656 C 29.769531 120.738281 29.769531 120.738281 28.386719 120.753906 C 27.140625 120.78125 27.140625 120.78125 25.871094 120.808594 C 23.039062 120.324219 22.058594 119.214844 20.253906 117.050781 C 21.378906 115.925781 21.378906 115.925781 23.570312 115.796875 Z M 23.570312 115.796875 "/>
<path style=" stroke:none;fill-rule:nonzero;fill:rgb(2.352941%,2.352941%,4.313726%);fill-opacity:1;" d="M 170.742188 89.265625 C 171.527344 89.332031 172.3125 89.402344 173.121094 89.472656 C 175.046875 89.644531 176.972656 89.839844 178.898438 90.039062 C 175.089844 92.578125 173.960938 92.414062 169.546875 92.359375 C 165.460938 92.621094 163.761719 92.800781 160.835938 95.734375 C 159.175781 98.28125 157.707031 100.804688 156.398438 103.542969 C 154.539062 103.171875 152.683594 102.800781 150.769531 102.417969 C 151.792969 100.792969 152.824219 99.175781 153.863281 97.566406 C 154.726562 96.214844 154.726562 96.214844 155.605469 94.835938 C 160.089844 88.875 163.53125 88.492188 170.742188 89.265625 Z M 170.742188 89.265625 "/>
<path style=" stroke:none;fill-rule:nonzero;fill:rgb(5.882353%,5.882353%,5.882353%);fill-opacity:1;" d="M 208.152344 73.15625 C 208.035156 75.144531 208.035156 75.144531 207.027344 77.65625 C 203.878906 79.820312 203.878906 79.820312 199.925781 81.878906 C 198.632812 82.570312 197.335938 83.257812 196 83.972656 C 192.402344 85.535156 192.402344 85.535156 187.902344 85.535156 C 187.902344 84.421875 187.902344 83.308594 187.902344 82.160156 C 189.871094 81.082031 191.839844 80 193.808594 78.925781 C 195.453125 78.023438 195.453125 78.023438 197.132812 77.105469 C 198.6875 76.265625 198.6875 76.265625 200.277344 75.40625 C 201.085938 74.964844 201.890625 74.519531 202.722656 74.0625 C 204.777344 73.15625 204.777344 73.15625 208.152344 73.15625 Z M 208.152344 73.15625 "/>
<path style=" stroke:none;fill-rule:nonzero;fill:rgb(5.098039%,5.098039%,5.098039%);fill-opacity:1;" d="M 514.195312 113.671875 C 516.796875 113.671875 519.394531 113.671875 522.074219 113.671875 C 521.703125 114.789062 521.328125 115.902344 520.949219 117.050781 C 519.832031 117.050781 518.71875 117.050781 517.570312 117.050781 C 517.199219 126.335938 516.828125 135.621094 516.445312 145.1875 C 515.703125 145.1875 514.960938 145.1875 514.195312 145.1875 C 513.976562 140.355469 513.769531 135.527344 513.5625 130.695312 C 513.5 129.320312 513.4375 127.941406 513.371094 126.523438 C 513.316406 125.210938 513.261719 123.898438 513.207031 122.542969 C 513.15625 121.332031 513.101562 120.117188 513.046875 118.867188 C 513.070312 115.925781 513.070312 115.925781 514.195312 113.671875 Z M 514.195312 113.671875 "/>
<path style=" stroke:none;fill-rule:nonzero;fill:rgb(4.313726%,5.490196%,5.098039%);fill-opacity:1;" d="M 112.515625 59.648438 C 115.257812 59.558594 118 59.492188 120.742188 59.4375 C 121.910156 59.398438 121.910156 59.398438 123.097656 59.351562 C 128.894531 59.269531 128.894531 59.269531 131.621094 61.351562 C 132 61.90625 132.378906 62.457031 132.769531 63.027344 C 129.230469 64.796875 125.464844 64.359375 121.585938 64.363281 C 120.765625 64.375 119.945312 64.390625 119.101562 64.40625 C 114.796875 64.417969 112.804688 64.34375 109.140625 61.902344 C 110.253906 61.902344 111.367188 61.902344 112.515625 61.902344 C 112.515625 61.160156 112.515625 60.414062 112.515625 59.648438 Z M 112.515625 59.648438 "/>
<path style=" stroke:none;fill-rule:nonzero;fill:rgb(5.098039%,5.098039%,5.098039%);fill-opacity:1;" d="M 311.667969 113.671875 C 318.351562 113.671875 325.035156 113.671875 331.921875 113.671875 C 332.292969 114.414062 332.664062 115.160156 333.046875 115.925781 C 326.734375 115.925781 320.421875 115.925781 313.917969 115.925781 C 313.917969 126.695312 313.917969 137.464844 313.917969 148.5625 C 313.546875 148.5625 313.175781 148.5625 312.792969 148.5625 C 312.421875 137.050781 312.050781 125.535156 311.667969 113.671875 Z M 311.667969 113.671875 "/>
<path style=" stroke:none;fill-rule:nonzero;fill:rgb(4.313726%,4.313726%,4.313726%);fill-opacity:1;" d="M 73.136719 33.765625 C 74.25 33.765625 75.363281 33.765625 76.511719 33.765625 C 78.046875 36.5 79.570312 39.242188 81.082031 41.996094 C 81.738281 43.160156 81.738281 43.160156 82.410156 44.347656 C 83.53125 46.402344 84.53125 48.523438 85.511719 50.644531 C 85.140625 51.761719 84.769531 52.875 84.386719 54.023438 C 79.335938 49.546875 75.761719 44.519531 73.136719 38.265625 C 73.136719 36.78125 73.136719 35.292969 73.136719 33.765625 Z M 73.136719 33.765625 "/>
<path style=" stroke:none;fill-rule:nonzero;fill:rgb(5.098039%,5.098039%,5.098039%);fill-opacity:1;" d="M 169.898438 37.140625 C 171.011719 37.140625 172.125 37.140625 173.273438 37.140625 C 172.613281 41.570312 171.277344 44.769531 168.984375 48.605469 C 168.421875 49.574219 167.855469 50.542969 167.273438 51.539062 C 165.308594 54.140625 163.898438 55.109375 160.898438 56.273438 C 161.484375 50.941406 162.929688 47.410156 165.820312 42.910156 C 166.5 41.820312 167.183594 40.734375 167.886719 39.613281 C 168.550781 38.796875 169.214844 37.980469 169.898438 37.140625 Z M 169.898438 37.140625 "/>
<path style=" stroke:none;fill-rule:nonzero;fill:rgb(5.490196%,5.490196%,5.490196%);fill-opacity:1;" d="M 121.515625 22.507812 C 123.003906 22.882812 124.488281 23.253906 126.015625 23.636719 C 125.644531 30.320312 125.273438 37.003906 124.890625 43.894531 C 123.777344 43.894531 122.664062 43.894531 121.515625 43.894531 C 121.515625 36.835938 121.515625 29.78125 121.515625 22.507812 Z M 121.515625 22.507812 "/>
<path style=" stroke:none;fill-rule:nonzero;fill:rgb(1.568628%,1.568628%,1.568628%);fill-opacity:1;" d="M 30.378906 140.683594 C 30.75 141.796875 31.121094 142.914062 31.503906 144.0625 C 24.820312 145.546875 18.136719 147.03125 11.25 148.5625 C 10.878906 147.449219 10.507812 146.335938 10.125 145.1875 C 12.65625 144.429688 15.1875 143.679688 17.722656 142.933594 C 19.132812 142.515625 20.539062 142.101562 21.992188 141.667969 C 25.878906 140.683594 25.878906 140.683594 30.378906 140.683594 Z M 30.378906 140.683594 "/>
<path style=" stroke:none;fill-rule:nonzero;fill:rgb(5.882353%,5.882353%,7.450981%);fill-opacity:1;" d="M 37.128906 67.527344 C 43.636719 70.550781 49.839844 73.855469 55.132812 78.785156 C 55.132812 79.527344 55.132812 80.269531 55.132812 81.035156 C 49.9375 80.425781 46.667969 78.289062 42.40625 75.335938 C 41.203125 74.511719 40 73.683594 38.761719 72.835938 C 37.851562 72.199219 36.941406 71.5625 36.003906 70.90625 C 36.375 69.789062 36.746094 68.675781 37.128906 67.527344 Z M 37.128906 67.527344 "/>
<path style=" stroke:none;fill-rule:nonzero;fill:rgb(9.803922%,9.803922%,9.803922%);fill-opacity:1;" d="M 151.894531 12.378906 C 152.640625 12.378906 153.382812 12.378906 154.144531 12.378906 C 153.605469 18.648438 152.683594 24.390625 150.769531 30.386719 C 149.285156 30.386719 147.800781 30.386719 146.269531 30.386719 C 147.503906 23.980469 149.128906 18.292969 151.894531 12.378906 Z M 151.894531 12.378906 "/>
<path style=" stroke:none;fill-rule:nonzero;fill:rgb(3.529412%,3.529412%,3.921569%);fill-opacity:1;" d="M 59.632812 56.273438 C 64.601562 56.726562 66.988281 60.105469 70.039062 63.660156 C 70.558594 64.246094 71.074219 64.832031 71.605469 65.433594 C 72.875 66.875 74.132812 68.324219 75.386719 69.78125 C 75.015625 70.894531 74.644531 72.007812 74.261719 73.15625 C 67.339844 68.496094 62.425781 64.417969 59.632812 56.273438 Z M 59.632812 56.273438 "/>
<path style=" stroke:none;fill-rule:nonzero;fill:rgb(2.745098%,2.745098%,3.921569%);fill-opacity:1;" d="M 172.148438 104.667969 C 174.539062 106.78125 174.539062 106.78125 176.648438 109.171875 C 176.648438 109.914062 176.648438 110.65625 176.648438 111.421875 C 181.757812 109.273438 181.757812 109.273438 186.777344 106.921875 C 186.425781 109.03125 186.425781 109.03125 185.652344 111.421875 C 181.445312 114.226562 179.378906 114.1875 174.398438 113.671875 C 170.585938 111.269531 169.082031 110.097656 167.648438 105.792969 C 169.898438 104.667969 169.898438 104.667969 172.148438 104.667969 Z M 172.148438 104.667969 "/>
<path style=" stroke:none;fill-rule:nonzero;fill:rgb(3.529412%,3.529412%,3.529412%);fill-opacity:1;" d="M 183.402344 61.902344 C 184.144531 62.273438 184.886719 62.644531 185.652344 63.027344 C 183.695312 65.105469 181.726562 67.164062 179.742188 69.214844 C 178.914062 70.101562 178.914062 70.101562 178.070312 71.007812 C 176.554688 72.558594 174.917969 73.992188 173.273438 75.40625 C 171.789062 75.40625 170.304688 75.40625 168.773438 75.40625 C 171.347656 69.664062 174.628906 67.253906 180.023438 64.152344 C 181.140625 63.410156 182.253906 62.667969 183.402344 61.902344 Z M 183.402344 61.902344 "/>
<path style=" stroke:none;fill-rule:nonzero;fill:rgb(5.490196%,5.490196%,5.490196%);fill-opacity:1;" d="M 735.851562 113.671875 C 742.90625 113.671875 749.960938 113.671875 757.230469 113.671875 C 757.230469 114.414062 757.230469 115.160156 757.230469 115.925781 C 750.546875 116.296875 743.863281 116.667969 736.976562 117.050781 C 736.605469 115.933594 736.234375 114.820312 735.851562 113.671875 Z M 735.851562 113.671875 "/>
<path style=" stroke:none;fill-rule:nonzero;fill:rgb(9.803922%,10.980392%,10.588235%);fill-opacity:1;" d="M 130.519531 60.777344 C 135.660156 61.394531 140.277344 62.371094 145.144531 64.152344 C 141.574219 66.300781 139.398438 66.585938 135.300781 65.980469 C 134.402344 65.855469 133.5 65.730469 132.574219 65.601562 C 131.894531 65.496094 131.21875 65.386719 130.519531 65.277344 C 130.519531 63.792969 130.519531 62.304688 130.519531 60.777344 Z M 130.519531 60.777344 "/>
<path style=" stroke:none;fill-rule:nonzero;fill:rgb(1.568628%,1.568628%,2.745098%);fill-opacity:1;" d="M 160.898438 91.164062 C 161.640625 91.90625 162.382812 92.648438 163.148438 93.414062 C 160.917969 96.757812 158.691406 100.101562 156.398438 103.542969 C 154.539062 103.171875 152.683594 102.800781 150.769531 102.417969 C 153.65625 97.714844 156.417969 94.398438 160.898438 91.164062 Z M 160.898438 91.164062 "/>
<path style=" stroke:none;fill-rule:nonzero;fill:rgb(4.313726%,4.313726%,4.313726%);fill-opacity:1;" d="M 144.019531 42.769531 C 144.761719 42.769531 145.503906 42.769531 146.269531 42.769531 C 145.15625 47.226562 144.042969 51.683594 142.894531 56.273438 C 141.410156 56.273438 139.925781 56.273438 138.394531 56.273438 C 140.183594 51.730469 142.085938 47.25 144.019531 42.769531 Z M 144.019531 42.769531 "/>
<path style=" stroke:none;fill-rule:nonzero;fill:rgb(3.921569%,3.921569%,3.921569%);fill-opacity:1;" d="M 551.328125 113.671875 C 557.265625 113.671875 563.207031 113.671875 569.328125 113.671875 C 569.328125 114.042969 569.328125 114.414062 569.328125 114.796875 C 564.503906 115.542969 559.675781 116.285156 554.703125 117.050781 C 554.332031 118.164062 553.960938 119.277344 553.578125 120.425781 C 552.835938 120.425781 552.089844 120.425781 551.328125 120.425781 C 550.203125 117.050781 550.203125 117.050781 551.328125 113.671875 Z M 551.328125 113.671875 "/>
<path style=" stroke:none;fill-rule:nonzero;fill:rgb(8.235294%,8.235294%,8.235294%);fill-opacity:1;" d="M 73.136719 33.765625 C 74.25 33.765625 75.363281 33.765625 76.511719 33.765625 C 80.136719 39.699219 80.136719 39.699219 81.011719 41.644531 C 80.640625 42.386719 80.269531 43.128906 79.886719 43.894531 C 78.773438 43.894531 77.660156 43.894531 76.511719 43.894531 C 73.699219 40.140625 73.136719 38.566406 73.136719 33.765625 Z M 73.136719 33.765625 "/>
<path style=" stroke:none;fill-rule:nonzero;fill:rgb(7.450981%,7.450981%,7.450981%);fill-opacity:1;" d="M 208.152344 73.15625 C 207.941406 75.265625 207.941406 75.265625 207.027344 77.65625 C 204.425781 79.207031 204.425781 79.207031 201.402344 79.910156 C 198.800781 78.925781 198.800781 78.925781 196.902344 77.65625 C 204.355469 73.15625 204.355469 73.15625 208.152344 73.15625 Z M 208.152344 73.15625 "/>
<path style=" stroke:none;fill-rule:nonzero;fill:rgb(16.470589%,16.470589%,16.470589%);fill-opacity:1;" d="M 185.652344 56.273438 C 186.394531 57.015625 187.136719 57.757812 187.902344 58.523438 C 187.480469 60.917969 187.480469 60.917969 186.777344 63.027344 C 185.488281 63.199219 185.488281 63.199219 184.175781 63.378906 C 180.957031 64.203125 179.847656 65.019531 177.773438 67.527344 C 177.03125 67.15625 176.289062 66.785156 175.523438 66.402344 C 178.867188 63.058594 182.207031 59.71875 185.652344 56.273438 Z M 185.652344 56.273438 "/>
<path style=" stroke:none;fill-rule:nonzero;fill:rgb(9.803922%,9.803922%,11.764706%);fill-opacity:1;" d="M 176.648438 99.042969 C 177.390625 99.414062 178.136719 99.785156 178.898438 100.167969 C 179.566406 103.148438 179.734375 106.125 180.023438 109.171875 C 178.910156 109.171875 177.796875 109.171875 176.648438 109.171875 C 175.90625 106.199219 175.164062 103.230469 174.398438 100.167969 C 175.140625 99.796875 175.882812 99.425781 176.648438 99.042969 Z M 176.648438 99.042969 "/>
<path style=" stroke:none;fill-rule:nonzero;fill:rgb(11.764706%,11.764706%,11.764706%);fill-opacity:1;" d="M 200.277344 42.769531 C 201.390625 43.140625 202.503906 43.511719 203.652344 43.894531 C 203.089844 45.933594 203.089844 45.933594 201.402344 48.394531 C 198.492188 49.816406 195.492188 50.824219 192.402344 51.773438 C 192.402344 49.519531 192.402344 49.519531 194.007812 47.785156 C 194.707031 47.171875 195.40625 46.5625 196.128906 45.933594 C 196.820312 45.3125 197.511719 44.695312 198.226562 44.054688 C 198.902344 43.632812 199.578125 43.207031 200.277344 42.769531 Z M 200.277344 42.769531 "/>
<path style=" stroke:none;fill-rule:nonzero;fill:rgb(5.098039%,5.098039%,5.098039%);fill-opacity:1;" d="M 322.917969 149.6875 C 323.292969 150.429688 323.664062 151.175781 324.046875 151.9375 C 328.128906 151.9375 332.214844 151.9375 336.421875 151.9375 C 336.050781 152.683594 335.679688 153.425781 335.296875 154.191406 C 330.839844 154.191406 326.386719 154.191406 321.792969 154.191406 C 321.421875 153.449219 321.050781 152.703125 320.667969 151.9375 C 321.414062 151.9375 322.15625 151.9375 322.917969 151.9375 C 322.917969 151.195312 322.917969 150.453125 322.917969 149.6875 Z M 322.917969 149.6875 "/>
<path style=" stroke:none;fill-rule:nonzero;fill:rgb(3.921569%,3.921569%,3.921569%);fill-opacity:1;" d="M 571.578125 124.929688 C 572.695312 125.300781 573.808594 125.671875 574.953125 126.054688 C 574.953125 129.023438 574.953125 131.996094 574.953125 135.058594 C 573.839844 135.058594 572.726562 135.058594 571.578125 135.058594 C 571.578125 131.714844 571.578125 128.371094 571.578125 124.929688 Z M 571.578125 124.929688 "/>
<path style=" stroke:none;fill-rule:nonzero;fill:rgb(9.019608%,9.019608%,9.411765%);fill-opacity:1;" d="M 181.921875 94.960938 C 182.78125 95.195312 183.640625 95.425781 184.527344 95.664062 C 184.898438 97.523438 185.269531 99.378906 185.652344 101.292969 C 184.535156 101.851562 184.535156 101.851562 183.402344 102.417969 C 182.9375 101.859375 182.472656 101.304688 181.992188 100.730469 C 179.886719 98.554688 179.886719 98.554688 175.523438 99.042969 C 175.523438 98.300781 175.523438 97.554688 175.523438 96.789062 C 178.898438 94.539062 178.898438 94.539062 181.921875 94.960938 Z M 181.921875 94.960938 "/>
<path style=" stroke:none;fill-rule:nonzero;fill:rgb(12.54902%,12.54902%,12.54902%);fill-opacity:1;" d="M 95.636719 64.152344 C 96.007812 64.894531 96.382812 65.636719 96.761719 66.402344 C 96.019531 67.144531 95.277344 67.886719 94.511719 68.652344 C 93.398438 70.324219 93.398438 70.324219 92.261719 72.03125 C 88.921875 71.472656 88.921875 71.472656 85.511719 70.90625 C 88.753906 68.203125 91.773438 65.871094 95.636719 64.152344 Z M 95.636719 64.152344 "/>
<path style=" stroke:none;fill-rule:nonzero;fill:rgb(10.588235%,10.588235%,10.980392%);fill-opacity:1;" d="M 164.273438 78.785156 C 166.128906 79.898438 167.984375 81.011719 169.898438 82.160156 C 169.527344 83.644531 169.15625 85.132812 168.773438 86.660156 C 166.59375 85.746094 166.59375 85.746094 164.273438 84.410156 C 163.902344 83.296875 163.53125 82.183594 163.148438 81.035156 C 163.519531 80.292969 163.890625 79.546875 164.273438 78.785156 Z M 164.273438 78.785156 "/>
<path style=" stroke:none;fill-rule:nonzero;fill:rgb(2.352941%,2.352941%,2.352941%);fill-opacity:1;" d="M 96.761719 64.152344 C 98.992188 64.152344 101.21875 64.152344 103.515625 64.152344 C 103.144531 65.265625 102.773438 66.378906 102.390625 67.527344 C 98.382812 68.863281 98.382812 68.863281 94.511719 69.78125 C 94.511719 68.664062 94.511719 67.550781 94.511719 66.402344 C 95.253906 66.402344 96 66.402344 96.761719 66.402344 C 96.761719 65.660156 96.761719 64.917969 96.761719 64.152344 Z M 96.761719 64.152344 "/>
<path style=" stroke:none;fill-rule:nonzero;fill:rgb(5.882353%,5.882353%,6.27451%);fill-opacity:1;" d="M 42.757812 38.265625 C 47.117188 39.25 47.117188 39.25 48.382812 40.515625 C 48.425781 42.390625 48.429688 44.269531 48.382812 46.144531 C 45.570312 44.105469 45.570312 44.105469 42.757812 41.644531 C 42.757812 40.527344 42.757812 39.414062 42.757812 38.265625 Z M 42.757812 38.265625 "/>
<path style=" stroke:none;fill-rule:nonzero;fill:rgb(6.27451%,7.058824%,6.27451%);fill-opacity:1;" d="M 157.523438 72.03125 C 162.796875 76.097656 162.796875 76.097656 164.273438 77.65625 C 164.273438 78.773438 164.273438 79.886719 164.273438 81.035156 C 161.53125 80.332031 161.53125 80.332031 158.648438 78.785156 C 157.734375 75.265625 157.734375 75.265625 157.523438 72.03125 Z M 157.523438 72.03125 "/>
<path style=" stroke:none;fill-rule:nonzero;fill:rgb(3.529412%,3.529412%,3.529412%);fill-opacity:1;" d="M 34.878906 93.414062 C 38.222656 93.972656 38.222656 93.972656 41.628906 94.539062 C 41.628906 96.027344 41.628906 97.511719 41.628906 99.042969 C 39.402344 98.300781 37.175781 97.554688 34.878906 96.789062 C 34.878906 95.675781 34.878906 94.5625 34.878906 93.414062 Z M 34.878906 93.414062 "/>
<path style=" stroke:none;fill-rule:nonzero;fill:rgb(8.235294%,8.235294%,8.235294%);fill-opacity:1;" d="M 175.523438 68.652344 C 176.265625 69.398438 177.007812 70.140625 177.773438 70.90625 C 175.804688 73.15625 175.804688 73.15625 173.273438 75.40625 C 171.789062 75.40625 170.304688 75.40625 168.773438 75.40625 C 169.898438 72.03125 169.898438 72.03125 172.148438 70.765625 C 172.890625 70.4375 173.632812 70.113281 174.398438 69.78125 C 174.769531 69.40625 175.140625 69.035156 175.523438 68.652344 Z M 175.523438 68.652344 "/>
<path style=" stroke:none;fill-rule:nonzero;fill:rgb(1.568628%,1.568628%,1.568628%);fill-opacity:1;" d="M 122.640625 34.890625 C 124.890625 37.140625 124.890625 37.140625 125.03125 40.65625 C 124.988281 41.726562 124.941406 42.792969 124.890625 43.894531 C 123.777344 43.894531 122.664062 43.894531 121.515625 43.894531 C 121.886719 40.921875 122.257812 37.949219 122.640625 34.890625 Z M 122.640625 34.890625 "/>
<path style=" stroke:none;fill-rule:nonzero;fill:rgb(6.666667%,6.666667%,6.666667%);fill-opacity:1;" d="M 672.84375 112.546875 C 676.183594 113.660156 679.527344 114.777344 682.96875 115.925781 C 678.539062 117.402344 676.078125 116.199219 671.71875 114.796875 C 672.089844 114.054688 672.460938 113.3125 672.84375 112.546875 Z M 672.84375 112.546875 "/>
<path style=" stroke:none;fill-rule:nonzero;fill:rgb(11.372549%,11.372549%,11.764706%);fill-opacity:1;" d="M 155.273438 96.789062 C 155.644531 97.535156 156.015625 98.277344 156.398438 99.042969 C 157.140625 99.414062 157.882812 99.785156 158.648438 100.167969 C 157.53125 101.28125 156.417969 102.394531 155.273438 103.542969 C 153.785156 102.800781 152.300781 102.058594 150.769531 101.292969 C 152.257812 99.808594 153.742188 98.320312 155.273438 96.789062 Z M 155.273438 96.789062 "/>
<path style=" stroke:none;fill-rule:nonzero;fill:rgb(3.137255%,3.137255%,3.137255%);fill-opacity:1;" d="M 200.277344 77.65625 C 200.648438 78.773438 201.019531 79.886719 201.402344 81.035156 C 199.175781 81.777344 196.949219 82.519531 194.652344 83.285156 C 194.652344 81.800781 194.652344 80.3125 194.652344 78.785156 C 196.507812 78.410156 198.363281 78.039062 200.277344 77.65625 Z M 200.277344 77.65625 "/>
<path style=" stroke:none;fill-rule:nonzero;fill:rgb(12.941177%,12.941177%,12.941177%);fill-opacity:1;" d="M 37.128906 67.527344 C 39.914062 68.644531 39.914062 68.644531 42.757812 69.78125 C 42.757812 70.894531 42.757812 72.007812 42.757812 73.15625 C 40.898438 72.785156 39.042969 72.414062 37.128906 72.03125 C 37.128906 70.542969 37.128906 69.058594 37.128906 67.527344 Z M 37.128906 67.527344 "/>
<path style=" stroke:none;fill-rule:nonzero;fill:rgb(1.568628%,1.568628%,1.568628%);fill-opacity:1;" d="M 166.523438 49.519531 C 165.609375 52.265625 165.609375 52.265625 164.273438 55.148438 C 163.160156 55.519531 162.046875 55.890625 160.898438 56.273438 C 160.898438 54.789062 160.898438 53.300781 160.898438 51.773438 C 164.273438 49.519531 164.273438 49.519531 166.523438 49.519531 Z M 166.523438 49.519531 "/>
<path style=" stroke:none;fill-rule:nonzero;fill:rgb(0.784314%,0.784314%,0.784314%);fill-opacity:1;" d="M 93.386719 11.253906 C 94.5 11.253906 95.617188 11.253906 96.761719 11.253906 C 97.464844 13.363281 97.464844 13.363281 97.886719 15.757812 C 97.144531 16.5 96.402344 17.242188 95.636719 18.007812 C 94.894531 17.636719 94.152344 17.265625 93.386719 16.882812 C 93.386719 15.023438 93.386719 13.167969 93.386719 11.253906 Z M 93.386719 11.253906 "/>
<path style=" stroke:none;fill-rule:nonzero;fill:rgb(9.803922%,9.803922%,10.196079%);fill-opacity:1;" d="M 168.773438 99.042969 C 170.445312 100.15625 170.445312 100.15625 172.148438 101.292969 C 172.148438 102.40625 172.148438 103.519531 172.148438 104.667969 C 170.664062 105.039062 169.179688 105.410156 167.648438 105.792969 C 168.019531 103.566406 168.390625 101.335938 168.773438 99.042969 Z M 168.773438 99.042969 "/>
<path style=" stroke:none;fill-rule:nonzero;fill:rgb(0.784314%,0.784314%,1.176471%);fill-opacity:1;" d="M 69.757812 66.402344 C 71.988281 67.515625 71.988281 67.515625 74.261719 68.652344 C 74.261719 70.140625 74.261719 71.625 74.261719 73.15625 C 72.011719 71.679688 72.011719 71.679688 69.757812 69.78125 C 69.757812 68.664062 69.757812 67.550781 69.757812 66.402344 Z M 69.757812 66.402344 "/>
<path style=" stroke:none;fill-rule:nonzero;fill:rgb(1.568628%,2.352941%,1.568628%);fill-opacity:1;" d="M 123.765625 60.777344 C 127.003906 60.636719 127.003906 60.636719 130.519531 60.777344 C 131.261719 61.519531 132.003906 62.261719 132.769531 63.027344 C 129.070312 63.925781 127.46875 64.261719 123.765625 63.027344 C 123.765625 62.285156 123.765625 61.539062 123.765625 60.777344 Z M 123.765625 60.777344 "/>
</g>
</svg>
