<?xml version="1.0" encoding="UTF-8"?>
<svg version="1.1" xmlns="http://www.w3.org/2000/svg" width="250" height="242">
<path d="M0 0 C1.65999023 0.05414063 1.65999023 0.05414063 3.35351562 0.109375 C9.40206536 0.38414474 14.27065433 0.83237072 19.5625 3.875 C22.24177341 7.89391012 21.71851248 10.11661923 21.5625 14.875 C22.58404175 14.91258423 22.58404175 14.91258423 23.6262207 14.95092773 C26.70933755 15.06690952 29.79215046 15.18962616 32.875 15.3125 C34.4827832 15.37147461 34.4827832 15.37147461 36.12304688 15.43164062 C37.15107422 15.47353516 38.17910156 15.51542969 39.23828125 15.55859375 C40.18614502 15.59525146 41.13400879 15.63190918 42.1105957 15.66967773 C44.5625 15.875 44.5625 15.875 47.5625 16.875 C46.99878586 20.14454202 46.06287734 21.70075883 43.5625 23.875 C44.95811147 28.09955363 46.94736957 30.66698116 50 33.875 C53.991295 38.08328468 56.7589273 41.9534131 59 47.3125 C60.40763162 50.8957328 60.40763162 50.8957328 62.6875 53.6875 C64.90600608 57.45896034 64.9638549 60.09276236 65.21875 64.375 C65.57673556 66.97853138 66.24929682 68.49879454 67.5625 70.75 C71.05742518 77.08695226 71.45114417 84.7386657 69.625 91.6875 C67.10852288 97.99013133 61.80296783 102.14551099 55.6875 104.8125 C49.0548551 106.94069118 42.29365083 106.08465609 35.5625 104.875 C35.45035156 103.6065625 35.45035156 103.6065625 35.3359375 102.3125 C34.46447804 94.7940262 33.36029569 89.05969546 27.5625 83.875 C22.40454575 80.91395219 16.30440359 78.88252378 10.3828125 80.453125 C8.40420436 81.19238518 6.48951889 82.01190063 4.5625 82.875 C3.5725 83.205 2.5825 83.535 1.5625 83.875 C0.47818906 85.62367483 0.47818906 85.62367483 -0.4375 87.875 C-1.2109375 89.23625 -1.2109375 89.23625 -2 90.625 C-3.71953116 94.51263567 -4.07378462 97.65590164 -4.4375 101.875 C-9.29454646 103.44037574 -13.35455967 104.12328678 -18.5078125 104.10546875 C-19.81621094 104.10353516 -21.12460938 104.10160156 -22.47265625 104.09960938 C-23.14441895 104.09340576 -23.81618164 104.08720215 -24.50830078 104.08081055 C-26.56425327 104.06248437 -28.61975529 104.06030182 -30.67578125 104.06054688 C-41.30408621 104.01333328 -41.30408621 104.01333328 -46.4375 102.875 C-48.87255237 102.65801513 -51.31051384 102.47209255 -53.75 102.3125 C-55.63138672 102.18681641 -55.63138672 102.18681641 -57.55078125 102.05859375 C-58.50339844 101.99800781 -59.45601563 101.93742187 -60.4375 101.875 C-60.64246094 101.04355469 -60.84742187 100.21210938 -61.05859375 99.35546875 C-61.32800781 98.26878906 -61.59742187 97.18210937 -61.875 96.0625 C-62.14183594 94.98355469 -62.40867187 93.90460938 -62.68359375 92.79296875 C-63.19827412 90.8009157 -63.78687175 88.82688476 -64.4375 86.875 C-65.0975 86.875 -65.7575 86.875 -66.4375 86.875 C-67.18 86.09125 -67.9225 85.3075 -68.6875 84.5 C-72.52852464 80.83356739 -75.61463987 80.07754001 -80.8125 79.5 C-84.80494553 79.91301161 -87.29167647 81.0498582 -90.73828125 83 C-92.4375 83.875 -92.4375 83.875 -94.4375 83.875 C-94.705625 84.41125 -94.97375 84.9475 -95.25 85.5 C-96.4375 87.875 -96.4375 87.875 -98 90.4375 C-99.98124651 95.17526339 -100.17483082 99.78465248 -100.4375 104.875 C-120.71548594 105.50359428 -120.71548594 105.50359428 -129 100.25 C-131.81555635 95.59821125 -130.69389665 90.27352717 -129.75 85.125 C-129.11144455 81.87996499 -129.11144455 81.87996499 -130.875 79.5 C-133.51919697 75.05774909 -132.90074835 70.65947128 -132.07421875 65.69140625 C-130.95958693 61.68024819 -129.44692713 59.49807373 -125.8125 57.44140625 C-119.72339719 54.2371277 -113.15736868 52.530856 -106.56744385 50.68209839 C-87.5375978 45.30414449 -69.98287751 39.43795146 -56.8125 23.6875 C-50.32078732 15.98051409 -43.37715705 12.83960807 -33.4375 11.875 C-32.53128906 11.85824219 -31.62507813 11.84148437 -30.69140625 11.82421875 C-28.094075 11.75089142 -25.92054169 11.65151486 -23.4375 10.875 C-21.76749272 8.97376094 -20.77401472 7.19869059 -19.765625 4.8828125 C-15.29970662 -1.86860529 -7.06625259 -0.37730426 0 0 Z M-16.66943359 6.12524414 C-18.2102423 8.52156124 -19.50855232 10.79644318 -20.6640625 13.39453125 C-21.24522827 14.66997803 -21.24522827 14.66997803 -21.83813477 15.97119141 C-22.24217529 16.86757324 -22.64621582 17.76395508 -23.0625 18.6875 C-26.97298712 27.16428398 -31.38669203 35.02191072 -36.50390625 42.8203125 C-38.52884937 45.74870905 -38.52884937 45.74870905 -39.4375 48.875 C-40.9225 49.37 -40.9225 49.37 -42.4375 49.875 C-45.47027199 52.93008026 -45.47027199 52.93008026 -46.4375 56.875 C-47.035625 57.1225 -47.63375 57.37 -48.25 57.625 C-50.80263531 59.08364875 -52.00482558 60.31126682 -53.4375 62.875 C-52.90790596 67.32718044 -50.45784167 69.05141684 -47.15234375 71.7890625 C-43.7711483 74.38698821 -40.36342853 76.92285766 -36.875 79.375 C-36.25028809 79.83277832 -35.62557617 80.29055664 -34.98193359 80.76220703 C-31.65505615 83.0310484 -29.92847692 83.86498006 -25.80078125 83.94921875 C-21.82660578 82.6798828 -20.05519084 81.20033471 -17.1875 78.1875 C-16.72641846 77.70345703 -16.26533691 77.21941406 -15.7902832 76.72070312 C-7.32057359 67.65041671 0.14698571 58.07903594 5.5625 46.875 C5.91054687 46.17713379 6.25859375 45.47926758 6.6171875 44.76025391 C15.71036272 27.64514711 15.71036272 27.64514711 18.5625 8.875 C17.25217701 6.45090246 16.46482187 5.18042074 13.82421875 4.28662109 C8.8030545 3.37279522 3.65103032 3.56070915 -1.4375 3.5 C-2.62601563 3.46261719 -3.81453125 3.42523438 -5.0390625 3.38671875 C-6.18117187 3.37511719 -7.32328125 3.36351563 -8.5 3.3515625 C-9.54285156 3.33174316 -10.58570313 3.31192383 -11.66015625 3.29150391 C-14.62135913 3.64778431 -14.62135913 3.64778431 -16.66943359 6.12524414 Z " fill="#010101" transform="translate(159.4375,78.125)"/>
<path d="M0 0 C4.53897889 3.37784476 7.15714279 7.05737289 8.171875 12.6875 C8.50460089 19.34201782 7.12455484 23.99755867 2.6875 29 C-0.75058881 31.96057647 -4.45313053 32.83476606 -8.90625 33.18359375 C-14.25610037 32.77540711 -18.42510039 30.06778045 -21.98828125 26.1640625 C-24.71650261 22.27538642 -26.0566521 18.79083684 -25.74609375 14.01953125 C-24.69973231 9.14593788 -22.04337194 5.09630791 -19.3125 1 C-13.20274802 -1.90213219 -6.39554815 -1.93073152 0 0 Z " fill="#020202" transform="translate(87.3125,162)"/>
<path d="M0 0 C0.94488281 -0.01417969 1.88976562 -0.02835938 2.86328125 -0.04296875 C6.96684187 0.29189996 9.65115778 1.04110374 12.453125 4.140625 C16.23260201 9.98886838 18.40406484 14.20020829 17.0625 21.25 C15.91683937 25.30625792 13.94159726 27.47575228 10.6875 30.1875 C10.089375 30.765 9.49125 31.3425 8.875 31.9375 C5.60999857 33.80321511 2.39205226 34.30543518 -1.3125 34.1875 C-7.50907734 32.19199204 -11.96439087 29.65128564 -15.125 23.875 C-16.9114912 18.3274747 -17.04110403 14.303643 -14.625 9 C-11.24438476 2.79217985 -6.94445734 0.0469855 0 0 Z " fill="#020202" transform="translate(174.3125,160.8125)"/>
<path d="M0 0 C1.72186082 1.55217019 3.4246819 3.12590374 5.1015625 4.7265625 C7.23766282 6.82488072 7.23766282 6.82488072 10.1953125 8.6796875 C9.8653125 9.9996875 9.5353125 11.3196875 9.1953125 12.6796875 C5.3416444 11.10967457 3.11165743 8.59603243 0.1953125 5.6796875 C-11.55977681 -4.3482286 -24.52506207 -7.30712658 -39.65039062 -6.51123047 C-52.13884172 -5.4044797 -63.73295047 0.51842754 -72.25 9.6875 C-78.1105121 17.19720143 -82.00885232 26.34134455 -83.8046875 35.6796875 C-83.48345693 38.45875457 -83.48345693 38.45875457 -82.8046875 40.6796875 C-83.4646875 40.6796875 -84.1246875 40.6796875 -84.8046875 40.6796875 C-84.4746875 45.9596875 -84.1446875 51.2396875 -83.8046875 56.6796875 C-84.7946875 56.6796875 -85.7846875 56.6796875 -86.8046875 56.6796875 C-90.23754124 41.72225333 -88.75752382 28.08168944 -80.8046875 14.6796875 C-80.24007812 13.71675781 -80.24007812 13.71675781 -79.6640625 12.734375 C-78.6171875 11.0546875 -78.6171875 11.0546875 -76.8046875 8.6796875 C-76.1446875 8.6796875 -75.4846875 8.6796875 -74.8046875 8.6796875 C-74.54300781 8.08800781 -74.28132813 7.49632813 -74.01171875 6.88671875 C-69.31540458 -1.70039293 -58.27025019 -6.77019528 -49.56640625 -10.203125 C-32.86311638 -14.8086923 -13.25526011 -10.96605085 0 0 Z " fill="#090B0A" transform="translate(140.8046875,64.3203125)"/>
<path d="M0 0 C0.33 0.66 0.66 1.32 1 2 C0.07320923 3.81925595 -0.85731368 5.63668976 -1.8046875 7.4453125 C-4.79335954 13.83286647 -8.01684763 20.986575 -6 28 C-6.66 28 -7.32 28 -8 28 C-7.67 33.28 -7.34 38.56 -7 44 C-7.99 44 -8.98 44 -10 44 C-13.0020775 30.91951945 -12.82204347 18.01979087 -6 6 C-3.375 3.1875 -3.375 3.1875 -1 1 C-0.67 0.67 -0.34 0.34 0 0 Z " fill="#0A0A0A" transform="translate(64,77)"/>
<path d="M0 0 C3.69186542 2.59216083 4.82883761 4.04149064 5.625 8.5 C4.82883761 12.95850936 3.69186542 14.40783917 0 17 C-4.12848931 17.66350721 -6.19933618 17.43514338 -9.875 15.4375 C-12.67977595 12.220257 -13.07449923 10.24645609 -13 6 C-9.43707664 0.34846639 -6.60567443 -0.6717635 0 0 Z M-7.1875 4.1875 C-9.21667976 5.8815484 -9.21667976 5.8815484 -9.5 8.5 C-9.20180308 11.09642209 -9.20180308 11.09642209 -7.3125 12.875 C-5.03425874 14.21199479 -5.03425874 14.21199479 -2.375 13.875 C0.32987773 13.1432514 0.32987773 13.1432514 2 10 C1.91666667 7.41666667 1.91666667 7.41666667 1 5 C-2.37022521 2.75318319 -3.60026952 2.24014631 -7.1875 4.1875 Z " fill="#0A0A0C" transform="translate(162,84)"/>
<path d="M0 0 C0.66 0 1.32 0 2 0 C1.47778954 8.57374623 -1.03233683 16.41766512 -3.5625 24.5625 C-3.99226561 25.9665739 -4.42130801 27.37086938 -4.84960938 28.77539062 C-5.89141433 32.18618857 -6.9429735 35.59388419 -8 39 C-9.32 39 -10.64 39 -12 39 C-10.497202 31.51064604 -8.34008615 24.26880867 -6.05883789 16.98583984 C-5.43055444 14.9778015 -4.80967465 12.96757254 -4.18945312 10.95703125 C-3.79209995 9.67955265 -3.3943292 8.40220384 -2.99609375 7.125 C-2.63700928 5.97257812 -2.2779248 4.82015625 -1.90795898 3.6328125 C-1 1 -1 1 0 0 Z " fill="#171717" transform="translate(135,11)"/>
<path d="M0 0 C0.99 0.33 1.98 0.66 3 1 C1.33438664 5.3327031 -1.87444884 8.13525232 -5.125 11.3125 C-5.70886475 11.88991943 -6.29272949 12.46733887 -6.89428711 13.06225586 C-10.62278713 16.72477386 -14.42800462 20.2636171 -18.42578125 23.6328125 C-20.1817147 25.10717598 -20.1817147 25.10717598 -22.25 27.4375 C-24 29 -24 29 -28 29 C-26.70795512 26.15696339 -25.35098217 24.10240156 -23.13671875 21.90625 C-22.57919922 21.35066406 -22.02167969 20.79507813 -21.44726562 20.22265625 C-20.86654297 19.65417969 -20.28582031 19.08570312 -19.6875 18.5 C-19.11837891 17.93152344 -18.54925781 17.36304687 -17.96289062 16.77734375 C-14.78492118 13.63221211 -11.52836291 10.75519121 -8 8 C-6.31337542 6.35353315 -4.64488294 4.68816933 -3 3 C-2 2 -1 1 0 0 Z " fill="#161616" transform="translate(178,38)"/>
<path d="M0 0 C0.99 0 1.98 0 3 0 C5.66554395 9.24200896 8.22008622 18.4989972 10.375 27.875 C10.55450195 28.62894043 10.73400391 29.38288086 10.91894531 30.15966797 C11.73791886 33.8233653 12.08929187 36.41552728 11 40 C7.17187901 37.44791934 6.9289525 35.00160515 5.95703125 30.76171875 C5.69704597 29.68504692 5.69704597 29.68504692 5.43180847 28.58662415 C5.06748681 27.06730622 4.70893093 25.54659586 4.35571289 24.0246582 C3.81628545 21.70378679 3.25838865 19.38797622 2.69726562 17.07226562 C2.34525003 15.59401249 1.99430359 14.11550427 1.64453125 12.63671875 C1.47895218 11.94696457 1.31337311 11.25721039 1.14277649 10.54655457 C0.31851422 6.9651164 -0.18682988 3.67668779 0 0 Z " fill="#080D09" transform="translate(83,10)"/>
<path d="M0 0 C8.49917899 2.02759133 16.8549696 4.37231406 25.1875 7 C26.31736328 7.34289062 27.44722656 7.68578125 28.61132812 8.0390625 C29.68189453 8.37679687 30.75246094 8.71453125 31.85546875 9.0625 C33.30409302 9.51302734 33.30409302 9.51302734 34.78198242 9.97265625 C35.51392822 10.31167969 36.24587402 10.65070313 37 11 C37.495 12.485 37.495 12.485 38 14 C30.2866815 13.36935132 23.09937302 11.2133517 15.6875 9.0625 C14.40050957 8.69814729 13.11340096 8.33421178 11.82617188 7.97070312 C2.38536092 5.25690728 2.38536092 5.25690728 -1 3 C-0.67 2.01 -0.34 1.02 0 0 Z " fill="#0E0E0E" transform="translate(12,77)"/>
<path d="M0 0 C0 0.99 0 1.98 0 3 C-0.5347998 3.14622803 -1.06959961 3.29245605 -1.62060547 3.44311523 C-4.03933339 4.10575521 -6.45717096 4.77158806 -8.875 5.4375 C-9.71675781 5.66759766 -10.55851562 5.89769531 -11.42578125 6.13476562 C-12.23144531 6.35712891 -13.03710938 6.57949219 -13.8671875 6.80859375 C-14.98262939 7.11494751 -14.98262939 7.11494751 -16.12060547 7.42749023 C-18.0636295 7.96216267 -18.0636295 7.96216267 -20 9 C-21.85172765 9.23567443 -23.70397921 9.46792672 -25.55859375 9.6796875 C-30.0691078 10.27146694 -34.53137797 11.15391899 -39 12 C-39.33 11.01 -39.66 10.02 -40 9 C-19.48699005 2.59137999 -19.48699005 2.59137999 -11.09375 1.32421875 C-8.98353504 1.03190374 -8.98353504 1.03190374 -6.890625 0.4609375 C-4.55787066 -0.10779186 -2.39149055 -0.06643029 0 0 Z " fill="#070707" transform="translate(49,120)"/>
<path d="M0 0 C3.43913052 0.56209445 4.80201056 1.52887772 6.9375 4.25 C9.47089607 7.36462409 12.1228177 10.19132204 15 13 C18.93824734 16.8563711 22.85390007 20.73304008 26.5625 24.8125 C27.30693359 25.62654297 27.30693359 25.62654297 28.06640625 26.45703125 C28.37449219 26.96621094 28.68257812 27.47539063 29 28 C28.67 28.99 28.34 29.98 28 31 C23.05361439 27.76970736 19.36536437 24.39261482 15.578125 19.86328125 C13.92489342 17.85118006 13.92489342 17.85118006 11.5625 15.625 C10 14 10 14 10 12 C9.40703125 11.74089844 8.8140625 11.48179688 8.203125 11.21484375 C5.84141859 9.91255529 4.49113554 8.60701522 2.75 6.5625 C2.22921875 5.96566406 1.7084375 5.36882813 1.171875 4.75390625 C0 3 0 3 0 0 Z " fill="#090909" transform="translate(38,34)"/>
<path d="M0 0 C1.67739258 0.07250977 1.67739258 0.07250977 3.38867188 0.14648438 C4.55591797 0.20255859 5.72316406 0.25863281 6.92578125 0.31640625 C8.69405273 0.3947168 8.69405273 0.3947168 10.49804688 0.47460938 C13.41172219 0.60436819 16.32506203 0.73933757 19.23828125 0.87890625 C18.57828125 1.20890625 17.91828125 1.53890625 17.23828125 1.87890625 C17.23828125 2.53890625 17.23828125 3.19890625 17.23828125 3.87890625 C16.51237793 3.86206787 15.78647461 3.84522949 15.03857422 3.82788086 C11.72896278 3.77741497 8.42318531 3.79626856 5.11328125 3.81640625 C3.40011719 3.77483398 3.40011719 3.77483398 1.65234375 3.73242188 C-4.72404481 3.69630755 -4.72404481 3.69630755 -9.90527344 6.95361328 C-11.40857422 9.20856446 -12.66052924 11.40545077 -13.76171875 13.87890625 C-15.41171875 13.54890625 -17.06171875 13.21890625 -18.76171875 12.87890625 C-17.85404773 11.43570933 -16.93515769 9.99956519 -16.01171875 8.56640625 C-15.24601563 7.36564453 -15.24601563 7.36564453 -14.46484375 6.140625 C-10.45160119 0.81111251 -6.48964026 -0.29648103 0 0 Z " fill="#131315" transform="translate(152.76171875,78.12109375)"/>
<path d="M0 0 C0.83265381 0.00523682 1.66530762 0.01047363 2.52319336 0.01586914 C3.42231445 0.0190918 4.32143555 0.02231445 5.24780273 0.02563477 C6.66609375 0.03820312 6.66609375 0.03820312 8.11303711 0.05102539 C9.06243164 0.05553711 10.01182617 0.06004883 10.98999023 0.06469727 C13.34356776 0.07652429 15.69702188 0.09300514 18.05053711 0.11352539 C18.05053711 1.43352539 18.05053711 2.75352539 18.05053711 4.11352539 C15.11248715 4.19438915 12.17665636 4.25395369 9.23803711 4.30102539 C7.98796875 4.33873047 7.98796875 4.33873047 6.71264648 4.37719727 C5.50898438 4.39169922 5.50898438 4.39169922 4.28100586 4.40649414 C3.17341919 4.43005981 3.17341919 4.43005981 2.04345703 4.45410156 C-0.47176811 4.02426706 -1.34387805 3.03889477 -2.94946289 1.11352539 C-1.94946289 0.11352539 -1.94946289 0.11352539 0 0 Z " fill="#070707" transform="translate(20.949462890625,102.886474609375)"/>
<path d="M0 0 C-0.10546875 1.765625 -0.10546875 1.765625 -1 4 C-3.80078125 5.921875 -3.80078125 5.921875 -7.3125 7.75 C-8.46363281 8.36359375 -9.61476562 8.9771875 -10.80078125 9.609375 C-14 11 -14 11 -18 11 C-18 10.01 -18 9.02 -18 8 C-16.25048432 7.04078278 -14.50036756 6.08266183 -12.75 5.125 C-11.28820312 4.32449219 -11.28820312 4.32449219 -9.796875 3.5078125 C-8.41242188 2.76144531 -8.41242188 2.76144531 -7 2 C-6.28328125 1.60554688 -5.5665625 1.21109375 -4.828125 0.8046875 C-3 0 -3 0 0 0 Z " fill="#0F0F0F" transform="translate(185,65)"/>
<path d="M0 0 C3.43913052 0.56209445 4.80201056 1.52887772 6.9375 4.25 C9.47001618 7.37536985 12.11446287 10.19933161 15 13 C13.02 13.99 13.02 13.99 11 15 C10.67 14.01 10.34 13.02 10 12 C8.67910031 11.30902516 7.34394949 10.64499766 6 10 C4.296875 8.37890625 4.296875 8.37890625 2.75 6.5625 C2.22921875 5.96566406 1.7084375 5.36882813 1.171875 4.75390625 C0 3 0 3 0 0 Z " fill="#2C2C2C" transform="translate(38,34)"/>
<path d="M0 0 C0.99 0 1.98 0 3 0 C2.41372717 3.93438516 1.22416523 6.77930831 -0.8125 10.1875 C-1.31394531 11.04730469 -1.81539062 11.90710938 -2.33203125 12.79296875 C-4.0779708 15.1031698 -5.33289677 15.96440026 -8 17 C-7.47980481 12.26200598 -6.19460555 9.12577827 -3.625 5.125 C-3.01914063 4.15820312 -2.41328125 3.19140625 -1.7890625 2.1953125 C-1.19867188 1.47085938 -0.60828125 0.74640625 0 0 Z " fill="#0A0A0A" transform="translate(151,33)"/>
<path d="M0 0 C0.99 0 1.98 0 3 0 C4.36663387 2.43123269 5.7183867 4.86886163 7.0625 7.3125 C7.64741211 8.34793945 7.64741211 8.34793945 8.24414062 9.40429688 C9.24037483 11.22925688 10.12752842 13.11273877 11 15 C10.67 15.99 10.34 16.98 10 18 C5.50970038 14.02287748 2.33541517 9.55530673 0 4 C0 2.68 0 1.36 0 0 Z " fill="#0A0A0A" transform="translate(65,30)"/>
<path d="M0 0 C1.32 0.33 2.64 0.66 4 1 C3.67 6.94 3.34 12.88 3 19 C2.01 19 1.02 19 0 19 C0 12.73 0 6.46 0 0 Z " fill="#0E0E0E" transform="translate(108,20)"/>
<path d="M0 0 C3.9354597 -0.45761159 5.57244809 -0.29742742 8.875 2 C11.72988584 6.03042707 11.41040319 8.15724241 11 13 C10.34 13 9.68 13 9 13 C9 13.66 9 14.32 9 15 C8.34 15 7.68 15 7 15 C7.06510417 13.01432292 7.13020833 11.02864583 7.1953125 9.04296875 C7.13254462 6.68640281 7.13254462 6.68640281 5 4 C2.44816596 2.79549696 2.44816596 2.79549696 0 2 C0 1.34 0 0.68 0 0 Z " fill="#070808" transform="translate(170,80)"/>
<path d="M0 0 C5.78438278 2.68560629 11.29546927 5.62078257 16 10 C16 10.66 16 11.32 16 12 C11.38127938 11.46014954 8.47604931 9.56034183 4.6875 6.9375 C3.61886719 6.20402344 2.55023438 5.47054687 1.44921875 4.71484375 C0.64097656 4.14894531 -0.16726562 3.58304688 -1 3 C-0.67 2.01 -0.34 1.02 0 0 Z " fill="#0E0E10" transform="translate(33,60)"/>
<path d="M0 0 C-1.73812641 1.84601012 -3.48888421 3.67614727 -5.25 5.5 C-5.98669922 6.28697266 -5.98669922 6.28697266 -6.73828125 7.08984375 C-8.08346642 8.47090052 -9.5385286 9.74264472 -11 11 C-12.32 11 -13.64 11 -15 11 C-13.10861951 6.08241073 -9.14487257 2.40948769 -4.8125 -0.4375 C-3 -1 -3 -1 0 0 Z " fill="#0E0E0E" transform="translate(165,56)"/>
<path d="M0 0 C4.5970078 0.35361598 8.68099369 1.41987574 13 3 C9.60496995 5.26335337 8.82992437 5.18567637 4.9375 4.75 C4.05964844 4.66234375 3.18179688 4.5746875 2.27734375 4.484375 C0 4 0 4 -2 2 C-1.34 1.34 -0.68 0.68 0 0 Z " fill="#171A18" transform="translate(116,54)"/>
<path d="M0 0 C-0.33 1.65 -0.66 3.3 -1 5 C-3.31 5.33 -5.62 5.66 -8 6 C-8 5.34 -8 4.68 -8 4 C-9.65 4.33 -11.3 4.66 -13 5 C-11 2 -11 2 -8.90625 1.26953125 C-8.1121875 1.11871094 -7.318125 0.96789063 -6.5 0.8125 C-5.30890625 0.57466797 -5.30890625 0.57466797 -4.09375 0.33203125 C-2 0 -2 0 0 0 Z " fill="#181C18" transform="translate(100,53)"/>
<path d="M0 0 C0.66 0 1.32 0 2 0 C1.01 3.96 0.02 7.92 -1 12 C-2.32 12 -3.64 12 -5 12 C-4.731875 11.505 -4.46375 11.01 -4.1875 10.5 C-2.56124507 7.0763054 -1.30484829 3.55867715 0 0 Z " fill="#0B0B0B" transform="translate(128,38)"/>
<path d="M0 0 C0.66 0.33 1.32 0.66 2 1 C1.67 2.32 1.34 3.64 1 5 C0.34 5 -0.32 5 -1 5 C-1.99 7.97 -2.98 10.94 -4 14 C-5.01351725 9.94593099 -4.98587468 9.03532787 -3.6875 5.3125 C-3.42324219 4.52488281 -3.15898438 3.73726562 -2.88671875 2.92578125 C-2 1 -2 1 0 0 Z " fill="#171717" transform="translate(129,33)"/>
<path d="M0 0 C0.99 0 1.98 0 3 0 C6.22265625 5.2734375 6.22265625 5.2734375 7 7 C6.67 7.66 6.34 8.32 6 9 C5.01 9 4.02 9 3 9 C0.50022457 5.66696609 0 4.26696398 0 0 Z " fill="#151515" transform="translate(65,30)"/>
<path d="M0 0 C0.66 0.33 1.32 0.66 2 1 C2.59355614 3.64860427 2.74209269 6.29197322 3 9 C2.01 9 1.02 9 0 9 C-0.66 6.36 -1.32 3.72 -2 1 C-1.34 0.67 -0.68 0.34 0 0 Z " fill="#19191E" transform="translate(157,88)"/>
<path d="M0 0 C0.763125 0.20625 1.52625 0.4125 2.3125 0.625 C2.6425 2.275 2.9725 3.925 3.3125 5.625 C2.3225 6.12 2.3225 6.12 1.3125 6.625 C0.9 6.13 0.4875 5.635 0.0625 5.125 C-1.80952338 3.19113908 -1.80952338 3.19113908 -5.6875 3.625 C-5.6875 2.965 -5.6875 2.305 -5.6875 1.625 C-2.6875 -0.375 -2.6875 -0.375 0 0 Z " fill="#161617" transform="translate(161.6875,84.375)"/>
<path d="M0 0 C1.11375 0.3403125 1.11375 0.3403125 2.25 0.6875 C1.63125 0.77 1.0125 0.8525 0.375 0.9375 C-1.93437567 1.50008459 -1.93437567 1.50008459 -3 3.75 C-3.2475 4.389375 -3.495 5.02875 -3.75 5.6875 C-4.41 5.6875 -5.07 5.6875 -5.75 5.6875 C-6.08 4.6975 -6.41 3.7075 -6.75 2.6875 C-4.29511132 0.41445492 -3.41240272 -0.38777304 0 0 Z " fill="#070709" transform="translate(157.75,84.3125)"/>
<path d="M0 0 C1.65 0.99 3.3 1.98 5 3 C4.67 4.32 4.34 5.64 4 7 C2.0625 6.1875 2.0625 6.1875 0 5 C-0.33 4.01 -0.66 3.02 -1 2 C-0.67 1.34 -0.34 0.68 0 0 Z " fill="#1B1B1C" transform="translate(146,70)"/>
<path d="M0 0 C4.51720311 -0.36625971 4.51720311 -0.36625971 6.8125 1.375 C8 3 8 3 8 5 C4.62537285 4.45276317 2.91765 3.9451 0 2 C0 1.34 0 0.68 0 0 Z " fill="#101015" transform="translate(41,67)"/>
<path d="M0 0 C0.66 0.66 1.32 1.32 2 2 C1.625 4.125 1.625 4.125 1 6 C-1.31 6.33 -3.62 6.66 -6 7 C-4.02 4.69 -2.04 2.38 0 0 Z " fill="#323232" transform="translate(165,50)"/>
<path d="M0 0 C0.33 0.66 0.66 1.32 1 2 C0.22265625 3.7265625 0.22265625 3.7265625 -0.9375 5.625 C-1.618125 6.73875 -2.29875 7.8525 -3 9 C-3.99 8.67 -4.98 8.34 -6 8 C-4.47261162 4.94522323 -2.20642045 2.60244464 0 0 Z " fill="#050505" transform="translate(64,77)"/>
<path d="M0 0 C1.98 0 3.96 0 6 0 C5.67 0.99 5.34 1.98 5 3 C1.4375 4.1875 1.4375 4.1875 -2 5 C-2 4.01 -2 3.02 -2 2 C-1.34 2 -0.68 2 0 2 C0 1.34 0 0.68 0 0 Z " fill="#060606" transform="translate(86,57)"/>
<path d="M0 0 C3.875 0.875 3.875 0.875 5 2 C5.04063832 3.66617115 5.042721 5.33388095 5 7 C2.5 5.1875 2.5 5.1875 0 3 C0 2.01 0 1.02 0 0 Z " fill="#0E0E0F" transform="translate(38,34)"/>
<path d="M0 0 C4.6875 3.61328125 4.6875 3.61328125 6 5 C6 5.99 6 6.98 6 8 C3.5625 7.375 3.5625 7.375 1 6 C0.1875 2.875 0.1875 2.875 0 0 Z " fill="#0F1210" transform="translate(140,64)"/>
<path d="M0 0 C0.33 0.99 0.66 1.98 1 3 C-1.35968744 5.09749995 -2.54616994 5.96905704 -5.75 6.1875 C-6.86375 6.0946875 -6.86375 6.0946875 -8 6 C-7.360625 5.896875 -6.72125 5.79375 -6.0625 5.6875 C-5.381875 5.460625 -4.70125 5.23375 -4 5 C-3.67 4.01 -3.34 3.02 -3 2 C-2.01 1.34 -1.02 0.68 0 0 Z " fill="#070707" transform="translate(165,95)"/>
<path d="M0 0 C1.98 0.495 1.98 0.495 4 1 C4 1.99 4 2.98 4 4 C4.66 5.32 5.32 6.64 6 8 C3.69 6.02 1.38 4.04 -1 2 C-0.67 1.34 -0.34 0.68 0 0 Z " fill="#0E1012" transform="translate(51,48)"/>
<path d="M0 0 C2 2 2 2 2.125 5.125 C2.08375 6.07375 2.0425 7.0225 2 8 C1.01 8 0.02 8 -1 8 C-0.67 5.36 -0.34 2.72 0 0 Z " fill="#040404" transform="translate(109,31)"/>
<path d="M0 0 C0.66 0 1.32 0 2 0 C2.33 1.65 2.66 3.3 3 5 C1.68 5.33 0.36 5.66 -1 6 C-0.67 4.02 -0.34 2.04 0 0 Z " fill="#181819" transform="translate(150,88)"/>
<path d="M0 0 C0.33 0.66 0.66 1.32 1 2 C1.66 2.33 2.32 2.66 3 3 C2.01 3.99 1.02 4.98 0 6 C-1.32 5.34 -2.64 4.68 -4 4 C-2.68 2.68 -1.36 1.36 0 0 Z " fill="#1C1C1E" transform="translate(138,86)"/>
<path d="M0 0 C2.475 0.99 2.475 0.99 5 2 C5 2.99 5 3.98 5 5 C3.35 4.67 1.7 4.34 0 4 C0 2.68 0 1.36 0 0 Z " fill="#202021" transform="translate(33,60)"/>
<path d="M0 0 C0.33 0.66 0.66 1.32 1 2 C-1 4 -3 6 -5 8 C-5 5 -5 5 -4 2 C-1.9375 0.8125 -1.9375 0.8125 0 0 Z " fill="#252525" transform="translate(85,57)"/>
<path d="M0 0 C-0.8125 2.4375 -0.8125 2.4375 -2 5 C-2.99 5.33 -3.98 5.66 -5 6 C-5 4.68 -5 3.36 -5 2 C-2 0 -2 0 0 0 Z " fill="#040404" transform="translate(148,44)"/>
<path d="M0 0 C0.99 0 1.98 0 3 0 C3.625 1.875 3.625 1.875 4 4 C3.34 4.66 2.68 5.32 2 6 C1.34 5.67 0.68 5.34 0 5 C0 3.35 0 1.7 0 0 Z " fill="#020202" transform="translate(83,10)"/>
<path d="M0 0 C1.98 0.99 1.98 0.99 4 2 C4 3.32 4 4.64 4 6 C2 4.6875 2 4.6875 0 3 C0 2.01 0 1.02 0 0 Z " fill="#020203" transform="translate(62,59)"/>
<path d="M0 0 C0.66 0.33 1.32 0.66 2 1 C1.34 2.98 0.68 4.96 0 7 C-0.99 7 -1.98 7 -3 7 C-2.67 5.68 -2.34 4.36 -2 3 C-1.34 3 -0.68 3 0 3 C0 2.01 0 1.02 0 0 Z " fill="#131313" transform="translate(150,37)"/>
<path d="M0 0 C1.65 1.65 3.3 3.3 5 5 C3.0625 5.5625 3.0625 5.5625 1 6 C0 5 0 5 -0.0625 2.4375 C-0.041875 1.633125 -0.02125 0.82875 0 0 Z " fill="#1E1E1F" transform="translate(43,37)"/>
<path d="" fill="#000000" transform="translate(0,0)"/>
</svg>
